<svg width="503" height="480" viewBox="0 0 503 480" fill="none" xmlns="http://www.w3.org/2000/svg">
<path fill-rule="evenodd" clip-rule="evenodd" d="M76.6424 11.9786C76.1623 11.9786 75.6633 12.0538 75.1455 12.2229C74.1947 12.5423 73.2439 13.1717 72.3401 14.0172C71.5493 14.9097 70.9092 15.868 70.4385 16.9671C69.9584 18.0757 69.7512 19.1842 69.7512 20.2928C69.7512 21.4013 70.0148 22.3502 70.4855 23.1487C71.0222 23.9848 71.7094 24.5673 72.5002 24.8867C72.9615 25.1027 73.4604 25.2061 73.997 25.2061C74.3736 25.2061 74.7784 25.1497 75.1926 25.0464C76.1435 24.7833 77.0472 24.2478 77.9415 23.3554C78.8453 22.5662 79.5326 21.561 80.0033 20.4055C80.4834 19.2969 80.747 18.132 80.747 16.9201C80.747 15.7083 80.587 14.703 80.0033 13.8575C79.5326 12.9651 78.8453 12.439 77.9415 12.1665C77.5179 12.0444 77.0849 11.9786 76.6424 11.9786Z" fill="#DFBBFE"/>
<path fill-rule="evenodd" clip-rule="evenodd" d="M111.098 -55.136C110.081 -55.136 109.027 -54.7884 107.925 -54.0932C106.231 -53.088 104.64 -51.4064 102.955 -49.1893C101.26 -46.9158 99.9421 -44.492 98.9348 -42.0119C97.9274 -39.5317 97.2967 -36.9483 97.0331 -34.3648C96.5624 -34.4963 96.1011 -34.5715 95.621 -34.5715C94.6325 -34.5715 93.6252 -34.2614 92.5896 -33.6226C91.0551 -32.7771 89.417 -31.0955 87.6754 -28.822C84.6064 -24.6509 82.8648 -20.1697 82.4412 -15.4255C81.6974 -16.4777 81.3774 -17.0038 80.643 -18.1687C77.4705 -13.9412 75.936 -11.8368 72.7634 -7.61866C76.9433 -0.121864 81.1703 7.21523 85.6138 14.496C88.7863 10.2684 90.3679 8.16408 93.5969 3.78625C90.895 -0.967369 89.5206 -3.44751 86.7717 -8.51114C86.301 -9.40362 86.0374 -10.4088 85.9244 -11.5737C85.9244 -12.7293 86.0845 -13.8378 86.461 -15.0497C86.8752 -16.271 87.5154 -17.3232 88.2027 -18.3284C88.8334 -19.0612 89.417 -19.6436 90.0478 -19.9066C90.3585 -20.0476 90.6785 -20.1133 90.9892 -20.1133C91.2716 -20.1133 91.5447 -20.057 91.7989 -19.963C92.326 -19.7469 92.7967 -19.2772 93.1168 -18.6384C96.0258 -12.9923 97.5038 -10.3055 100.413 -5.02579C103.642 -9.2533 105.223 -11.3577 108.396 -15.5852C105.751 -20.6488 104.489 -23.2323 101.891 -28.559C101.42 -29.4608 101.156 -30.513 101.156 -31.6685C101.053 -32.8898 101.26 -34.1017 101.684 -35.3136C102.051 -36.5255 102.691 -37.5777 103.322 -38.5265C104.216 -39.7478 105.176 -40.3209 106.014 -40.4806C106.061 -40.49 106.099 -40.49 106.137 -40.49C106.984 -40.49 107.681 -39.9545 108.189 -38.799C110.938 -32.8898 112.312 -30.0339 115.061 -24.4442C118.177 -28.6623 119.815 -30.8324 122.988 -35.0506C120.079 -41.3261 118.601 -44.5484 115.692 -51.303C114.901 -53.3041 113.847 -54.5723 112.416 -54.9387C111.983 -55.0702 111.54 -55.136 111.098 -55.136Z" fill="#DFBBFE"/>
<path fill-rule="evenodd" clip-rule="evenodd" d="M98.1161 45.9868C97.5324 45.9868 96.9111 46.0902 96.2332 46.2499C95.2354 46.5693 94.2281 47.0954 93.2772 47.8375C92.3264 48.5703 91.5827 49.4722 91.0555 50.4774C90.5283 51.4262 90.2647 52.422 90.1612 53.3239C90.1047 54.2728 90.3118 55.0619 90.7919 55.8041C91.272 56.5368 91.8463 57.1193 92.75 57.3823C93.2113 57.5326 93.7103 57.6078 94.2281 57.6078C94.6517 57.6078 95.0941 57.5608 95.546 57.4387C96.6098 57.1757 97.5607 56.6965 98.455 55.9074C99.3588 55.1652 100.093 54.2728 100.733 53.2675C101.317 52.2717 101.684 51.2665 101.741 50.2143C101.788 49.1058 101.581 48.2603 101.157 47.5181C100.677 46.8323 99.9895 46.3062 99.0952 46.0902C98.7845 46.015 98.455 45.9868 98.1161 45.9868Z" fill="#DFBBFE"/>
<path fill-rule="evenodd" clip-rule="evenodd" d="M130.416 -13.9597C129.437 -13.9597 128.382 -13.5745 127.272 -12.8887C125.737 -11.8835 124.202 -10.4086 122.621 -8.40758C121.086 -6.35018 119.815 -4.18006 118.921 -1.97235C118.074 0.301109 117.547 2.51821 117.33 4.78228C116.954 4.69773 116.586 4.65076 116.219 4.65076C115.221 4.65076 114.233 4.96078 113.16 5.57142C111.729 6.47329 110.194 7.94823 108.613 10.0056C105.704 13.754 104.066 17.8124 103.746 21.9272C103.002 21.0347 102.691 20.5556 102.004 19.6068C99.0385 23.4116 97.5605 25.3092 94.595 29.161C98.5677 35.4365 102.578 41.712 106.655 48.0439C109.723 44.2485 111.249 42.3508 114.214 38.3958C111.672 34.2246 110.411 32.1672 107.765 27.7894C107.238 27.0003 107.022 26.0984 106.965 25.0932C106.918 24.0974 107.125 23.0921 107.445 22.04C107.869 20.9314 108.396 19.9262 109.083 19.0807C109.611 18.3949 110.138 17.9252 110.721 17.6621C111.089 17.5024 111.427 17.4179 111.748 17.4179C111.973 17.4179 112.19 17.4648 112.416 17.5494C112.943 17.7091 113.367 18.0755 113.687 18.6579C116.539 23.5149 117.857 25.8353 120.606 30.4762C123.732 26.6245 125.21 24.7831 128.222 21.0347C125.737 16.6005 124.466 14.3835 121.877 9.74258C121.406 8.95344 121.246 8.05157 121.143 6.99938C121.086 5.99417 121.294 4.94199 121.614 3.83344C122.037 2.78126 122.517 1.83241 123.148 0.986908C124.042 -0.121643 124.843 -0.704094 125.737 -0.863808C125.812 -0.873199 125.888 -0.873199 125.963 -0.873199C126.716 -0.873199 127.375 -0.394081 127.855 0.564156C130.548 5.68415 131.922 8.1643 134.624 13.1246C137.636 9.27285 139.114 7.42213 142.071 3.62676C139.171 -1.97235 137.74 -4.81889 134.775 -10.6247C133.937 -12.3627 132.826 -13.4712 131.498 -13.7906C131.15 -13.9034 130.783 -13.9597 130.416 -13.9597Z" fill="#DFBBFE"/>
<path fill-rule="evenodd" clip-rule="evenodd" d="M117.067 76.087C116.521 76.087 115.937 76.1716 115.325 76.3219C114.214 76.5849 113.207 77.0641 112.2 77.8062C111.202 78.492 110.411 79.2812 109.827 80.23C109.187 81.1225 108.763 82.0244 108.66 82.9168C108.5 83.8657 108.66 84.6078 109.083 85.2467C109.451 85.9325 110.091 86.4022 110.882 86.6652C111.305 86.778 111.766 86.8437 112.256 86.8437C112.698 86.8437 113.16 86.7874 113.63 86.6652C114.638 86.4586 115.636 85.9794 116.699 85.397C117.754 84.6642 118.545 83.8657 119.185 82.9168C119.816 81.968 120.239 81.0191 120.399 80.0233C120.606 79.0181 120.503 78.229 120.079 77.5432C119.656 76.8574 119.081 76.4346 118.177 76.2186C117.829 76.134 117.453 76.087 117.067 76.087Z" fill="#DFBBFE"/>
<path fill-rule="evenodd" clip-rule="evenodd" d="M149.338 22.7542C148.416 22.7542 147.427 23.0454 146.354 23.6184C144.876 24.4076 143.398 25.7792 141.92 27.5735C140.433 29.4242 139.218 31.2656 138.371 33.276C137.477 35.277 136.949 37.3344 136.733 39.3448C136.356 39.2603 135.98 39.2227 135.603 39.2227C134.699 39.2227 133.777 39.4576 132.769 39.9742C131.339 40.7164 129.917 42.0316 128.326 43.8824C125.53 47.1516 123.892 50.7873 123.515 54.4793C122.885 53.6902 122.565 53.2674 121.981 52.4219C119.081 55.804 117.65 57.495 114.798 60.8676C118.338 66.5606 121.774 72.2631 125.106 78.0125C128.222 74.6869 129.757 73.0522 132.769 69.8393C130.651 65.9312 129.493 63.9772 127.215 60.0221C126.791 59.2799 126.584 58.4908 126.584 57.6453C126.584 56.7528 126.744 55.804 127.112 54.9021C127.535 53.9532 128.062 53.0608 128.75 52.2716C129.277 51.6892 129.813 51.2101 130.341 51.0034C130.698 50.8437 131.028 50.7779 131.348 50.7779C131.546 50.7779 131.743 50.8061 131.922 50.8437C132.449 51.0034 132.826 51.3134 133.137 51.8489C135.622 56.2737 136.789 58.4438 139.171 62.8216C142.184 59.4396 143.662 57.758 146.618 54.4793C144.452 50.3176 143.342 48.2602 141.073 44.0327C140.649 43.2999 140.433 42.398 140.433 41.4492C140.433 40.5567 140.649 39.4951 140.969 38.6027C141.336 37.6538 141.864 36.7519 142.447 36.0192C143.238 35.014 144.085 34.4879 144.876 34.4315C144.914 34.4315 144.961 34.4315 144.998 34.4315C145.733 34.4315 146.335 34.9012 146.834 35.7561C149.32 40.4534 150.534 42.8208 152.859 47.4147C155.768 44.089 157.246 42.398 160.155 39.1287C157.566 33.8021 156.248 31.2186 153.499 25.8355C152.652 24.2479 151.588 23.2521 150.374 22.8763C150.035 22.7917 149.696 22.7542 149.338 22.7542Z" fill="#DFBBFE"/>
<path fill-rule="evenodd" clip-rule="evenodd" d="M169.767 4.8951C170.247 4.8951 170.699 5.01723 171.151 5.26149C171.942 5.68424 172.582 6.31367 173.053 7.31889C173.533 8.42744 173.797 9.53598 173.797 10.9076C173.853 12.2228 173.59 13.5944 173.166 14.8627C172.789 16.1779 172.159 17.2395 171.208 18.1319C170.464 19.0808 169.617 19.6632 168.722 19.9263C168.336 20.0484 167.95 20.1142 167.564 20.1142C167.113 20.1142 166.67 20.0202 166.237 19.823C165.446 19.4472 164.863 18.8177 164.382 17.8125C163.912 16.8167 163.648 15.6518 163.648 14.3835C163.648 13.1247 163.808 11.8564 164.232 10.4848C164.646 9.1602 165.23 8.00468 166.021 7.05584C166.868 6.05063 167.715 5.46817 168.619 5.10178C169.024 4.96087 169.4 4.8951 169.767 4.8951ZM174.06 -6.11523C172.705 -6.11523 171.292 -5.71127 169.833 -4.86577C167.668 -3.6069 165.493 -1.65285 163.385 1.03397C161.21 3.62685 159.525 6.52975 158.197 9.63932C156.823 12.7019 156.089 15.8115 155.872 18.7144C155.712 21.777 156.192 24.3605 157.303 26.6246C158.414 28.8417 159.835 30.2132 161.747 30.5796C162.227 30.6924 162.726 30.7487 163.225 30.7487C164.684 30.7487 166.199 30.2978 167.772 29.4711C169.937 28.3156 172.102 26.5212 174.164 24.0974C176.282 21.6643 177.92 19.0338 179.238 16.0745C180.509 13.1247 181.3 10.0621 181.516 7.05584C181.723 4.04961 181.3 1.30641 180.245 -1.17373C179.134 -3.71024 177.76 -5.34489 175.858 -5.87098C175.265 -6.04008 174.672 -6.11523 174.06 -6.11523Z" fill="#DFBBFE"/>
<path fill-rule="evenodd" clip-rule="evenodd" d="M196.541 -37.277C195.826 -37.277 195.063 -37.0609 194.254 -36.6288C192.936 -35.896 191.505 -34.6277 190.083 -32.8334C187.334 -29.3011 185.8 -25.2332 185.48 -20.8084C184.792 -22.0203 184.529 -22.5934 183.842 -23.7583C181.253 -20.4327 179.878 -18.7417 177.289 -15.4254C180.565 -7.82526 183.945 -0.178146 187.174 7.47836C189.923 4.09635 191.241 2.51807 193.99 -0.751205C191.928 -5.71149 190.93 -8.24801 188.812 -13.2553C188.445 -14.2605 188.229 -15.3127 188.229 -16.4776C188.229 -17.5861 188.445 -18.7417 188.812 -19.8032C189.236 -20.9118 189.763 -21.9076 190.45 -22.7531C191.26 -23.8616 192.07 -24.3971 192.832 -24.3971C192.86 -24.3971 192.898 -24.3971 192.936 -24.3877C193.726 -24.3408 194.367 -23.7019 194.79 -22.4901C197.116 -16.797 198.17 -13.9974 200.392 -8.40771C203.084 -11.7803 204.411 -13.4713 207.104 -16.7406C204.619 -23.3356 203.348 -26.5579 200.862 -33.1528C200.128 -35.0975 199.177 -36.3657 198.01 -36.9482C197.549 -37.1642 197.059 -37.277 196.541 -37.277Z" fill="#DFBBFE"/>
<path fill-rule="evenodd" clip-rule="evenodd" d="M132.28 104.562C131.809 104.562 131.291 104.628 130.764 104.759C129.757 105.022 128.702 105.501 127.695 106.187C126.584 106.873 125.793 107.662 125.05 108.508C124.315 109.456 123.892 110.358 123.628 111.204C123.355 112.096 123.468 112.838 123.732 113.468C123.995 114.154 124.522 114.633 125.266 114.896C125.652 115.027 126.076 115.093 126.528 115.093C126.942 115.093 127.375 115.046 127.855 114.943C128.909 114.783 129.917 114.37 130.971 113.571C131.978 112.885 132.873 112.153 133.56 111.204C134.247 110.358 134.775 109.409 135.047 108.461C135.415 107.502 135.358 106.713 135.047 106.027C134.775 105.398 134.247 104.919 133.457 104.712C133.108 104.609 132.713 104.562 132.28 104.562Z" fill="#DFBBFE"/>
<path fill-rule="evenodd" clip-rule="evenodd" d="M165.851 57.2134C165.107 57.2134 164.298 57.4201 163.432 57.8052C162.01 58.491 160.579 59.6559 159.148 61.1872C157.67 62.8219 156.456 64.4565 155.505 66.2978C154.554 68.0922 153.97 69.8865 153.603 71.7842C153.132 71.6245 152.671 71.5494 152.21 71.5494C151.457 71.5494 150.694 71.7467 149.847 72.1036C148.576 72.6297 147.098 73.7947 145.563 75.3729C142.815 78.2758 141.073 81.4418 140.386 84.8708C139.906 83.9783 139.642 83.6025 139.115 82.7664C136.206 85.6599 134.775 87.1442 131.819 90.0941C135.359 96.7924 136.893 100.174 139.698 106.929C142.871 104.129 144.406 102.701 147.522 99.9583C145.884 96.0032 145.093 94.1055 143.295 90.1974C142.918 89.568 142.815 88.7225 142.871 87.9334C142.918 87.0879 143.182 86.2423 143.605 85.3968C144.029 84.5044 144.613 83.7152 145.3 83.0294C145.827 82.4939 146.354 82.1839 146.891 81.9679C147.154 81.8645 147.399 81.8081 147.644 81.8081C147.889 81.8081 148.124 81.8645 148.369 81.9679C148.793 82.1839 149.103 82.4939 149.367 83.0294C151.381 87.4073 152.332 89.568 154.074 93.8989C157.199 91.0993 158.724 89.6244 161.746 86.8248C160.052 82.6537 159.205 80.5493 157.303 76.4345C156.983 75.6923 156.823 74.8468 156.936 74.0013C156.983 73.1089 157.199 72.2633 157.567 71.3709C157.99 70.5254 158.517 69.7832 159.148 69.0974C159.948 68.3083 160.739 67.8292 161.483 67.8292C162.217 67.8292 162.801 68.3083 163.224 69.2571C165.23 73.8416 166.237 76.1151 168.092 80.8123C171.048 78.0128 172.479 76.5378 175.435 73.7383C173.373 68.4116 172.319 65.7248 169.993 60.5014C169.353 58.9138 168.402 57.9649 167.244 57.4952C166.802 57.3073 166.341 57.2134 165.851 57.2134Z" fill="#DFBBFE"/>
<path fill-rule="evenodd" clip-rule="evenodd" d="M186.035 42.2759C186.6 42.2759 187.146 42.4544 187.645 42.7738C188.333 43.1402 188.916 43.8824 189.283 44.8782C189.707 45.8834 189.924 47.0483 189.82 48.3072C189.82 49.5754 189.556 50.7873 189.076 51.9992C188.653 53.1641 188.022 54.1693 187.222 54.9585C186.487 55.7476 185.697 56.2267 184.793 56.4334C184.548 56.4992 184.313 56.5273 184.077 56.5273C183.513 56.5273 182.995 56.3488 182.468 56.0106C181.724 55.5409 181.15 54.9021 180.773 53.9063C180.349 52.9574 180.246 51.7925 180.246 50.5806C180.302 49.3687 180.509 48.1569 180.989 46.9919C181.46 45.827 182.044 44.7748 182.788 43.9293C183.522 43.1402 184.322 42.6141 185.216 42.398C185.489 42.3135 185.772 42.2759 186.035 42.2759ZM190.168 32.0735C189.067 32.0735 187.899 32.3741 186.694 32.9566C184.529 33.9618 182.468 35.5964 180.349 37.9169C178.288 40.1903 176.546 42.8208 175.172 45.564C173.797 48.3072 172.95 51.1067 172.63 53.9063C172.319 56.6964 172.63 59.1766 173.59 61.4501C174.541 63.6672 175.859 65.0857 177.553 65.6682C178.25 65.9312 178.975 66.0534 179.747 66.0534C180.848 66.0534 182.016 65.7997 183.258 65.3018C185.32 64.3999 187.438 62.925 189.556 60.7643C191.665 58.7069 193.416 56.3864 194.734 53.6902C196.109 51.0034 196.956 48.2602 197.323 45.3573C197.643 42.4544 197.38 39.8145 196.429 37.3908C195.478 34.9106 194.103 33.276 192.409 32.5338C191.703 32.2238 190.95 32.0735 190.168 32.0735Z" fill="#DFBBFE"/>
<path fill-rule="evenodd" clip-rule="evenodd" d="M212.15 4.93274C211.585 4.93274 211.002 5.06426 210.38 5.30852C209.062 5.84401 207.735 6.94316 206.36 8.53083C203.771 11.6404 202.19 15.2291 201.813 19.4003C201.183 18.1884 200.919 17.6059 200.335 16.441C197.746 19.4003 196.476 20.8188 193.943 23.7781C196.956 31.2655 199.865 38.8656 202.614 46.5127C205.362 43.6662 206.68 42.1913 209.382 39.4481C207.631 34.4314 206.784 31.9043 204.882 26.944C204.515 25.8918 204.355 24.8303 204.355 23.7781C204.355 22.6695 204.572 21.6643 204.939 20.6685C205.362 19.6633 205.89 18.8178 206.577 18.0756C207.311 17.2113 208.036 16.7792 208.695 16.7792C208.808 16.7792 208.912 16.7886 209.006 16.8168C209.749 16.9201 210.333 17.5495 210.757 18.7145C212.762 24.3605 213.769 27.1037 215.718 32.7968C218.42 30.0066 219.738 28.5223 222.383 25.7321C220.218 19.1372 219.051 15.8679 216.725 9.27299C216.038 7.42228 215.087 6.05068 214.033 5.46822C213.412 5.10184 212.79 4.93274 212.15 4.93274Z" fill="#DFBBFE"/>
<path fill-rule="evenodd" clip-rule="evenodd" d="M236.288 -26.2384C233.172 -22.49 231.638 -20.6487 228.569 -16.7969C227.985 -13.5746 227.721 -11.9964 227.147 -8.83041C226.667 -5.82417 226.403 -4.33984 225.923 -1.38998C225.189 -3.60707 224.869 -4.65926 224.125 -6.87636C222.384 -12.0433 221.433 -14.6832 219.635 -19.8032C216.989 -16.5809 215.671 -15.0026 213.026 -11.7803C217.206 -0.337791 221.226 11.1705 225.132 22.7727C227.721 19.9261 229.096 18.4512 231.638 15.6516C230.63 12.3823 230.103 10.7477 228.992 7.52539C229.359 6.05046 229.576 5.3083 229.896 3.78638C230.894 4.35945 231.374 4.73523 232.325 5.3083C234.443 6.67989 235.545 7.42206 237.663 8.89699C240.779 5.42103 242.313 3.73002 245.439 0.244667C240.308 -2.80854 237.663 -4.18014 232.428 -6.77302C233.803 -13.2552 235.074 -19.7468 236.288 -26.2384Z" fill="#DFBBFE"/>
<path fill-rule="evenodd" clip-rule="evenodd" d="M142.08 133.976C141.751 133.976 141.421 134.014 141.073 134.098C140.009 134.305 139.011 134.681 138.004 135.31C136.997 135.94 136.149 136.682 135.359 137.584C134.624 138.42 133.984 139.369 133.673 140.271C133.297 141.219 133.25 141.905 133.4 142.647C133.56 143.333 133.984 143.859 134.624 144.226C135.029 144.451 135.537 144.536 136.131 144.536C136.385 144.536 136.658 144.526 136.95 144.489C137.9 144.329 138.851 143.963 139.746 143.333C140.753 142.647 141.704 141.905 142.551 141.06C143.342 140.167 143.925 139.265 144.349 138.316C144.716 137.368 144.82 136.578 144.669 135.836C144.556 135.104 144.133 134.624 143.445 134.305C143.059 134.08 142.589 133.976 142.08 133.976Z" fill="#DFBBFE"/>
<path fill-rule="evenodd" clip-rule="evenodd" d="M178.635 91.729C178.099 91.729 177.524 91.8417 176.913 92.0484C175.595 92.5275 174.164 93.3636 172.629 94.7352C171.151 96.0599 169.833 97.5348 168.826 99.1694C167.771 100.757 167.028 102.439 166.501 104.233C165.926 103.932 165.277 103.782 164.589 103.782C164.081 103.782 163.554 103.867 163.008 104.026C161.746 104.449 160.259 105.398 158.677 106.713C155.768 109.193 153.81 112.096 152.756 115.319C152.332 114.417 152.229 114.05 151.805 113.148C148.793 115.629 147.305 116.84 144.189 119.321C146.467 126.291 147.362 129.88 148.793 137.311C152.229 134.944 153.81 133.732 157.199 131.402C156.352 127.137 155.825 125.023 154.761 120.955C154.554 120.222 154.497 119.377 154.714 118.588C154.874 117.799 155.241 117.057 155.712 116.267C156.192 115.525 156.776 114.839 157.51 114.257C158.094 113.787 158.574 113.524 159.101 113.411C159.233 113.402 159.346 113.393 159.459 113.393C159.854 113.393 160.146 113.477 160.475 113.675C160.899 113.947 161.163 114.37 161.266 114.896C162.537 119.48 163.168 121.754 164.119 126.498C167.404 124.178 168.986 122.966 172.158 120.589C171.151 116.051 170.624 113.834 169.409 109.409C169.146 108.667 169.146 107.878 169.249 106.976C169.466 106.131 169.73 105.295 170.2 104.496C170.68 103.707 171.208 103.021 171.895 102.495C172.62 101.819 173.307 101.537 173.985 101.537C174.051 101.537 174.107 101.537 174.164 101.546C174.851 101.706 175.387 102.232 175.651 103.237C177.025 108.141 177.656 110.621 178.767 115.629C181.836 113.308 183.371 112.096 186.487 109.719C185.216 103.97 184.472 101.18 182.834 95.5807C182.363 94.0025 181.62 92.8376 180.565 92.2551C179.972 91.9075 179.332 91.729 178.635 91.729Z" fill="#DFBBFE"/>
<path fill-rule="evenodd" clip-rule="evenodd" d="M199.158 80.0984C199.836 80.0984 200.439 80.3239 200.975 80.8124C201.663 81.3948 202.133 82.184 202.397 83.2362C202.66 84.3447 202.717 85.4532 202.613 86.7215C202.397 88.0367 202.086 89.1453 201.55 90.3102C200.975 91.4188 200.335 92.3676 199.488 92.997C198.697 93.5795 197.906 93.8989 197.116 94.0022C196.268 94.0022 195.525 93.7392 194.941 93.1567C194.367 92.5743 193.886 91.7851 193.623 90.7799C193.359 89.7747 193.256 88.6192 193.416 87.4073C193.519 86.1954 193.886 85.0869 194.414 83.9219C194.941 82.8698 195.525 81.9209 196.372 81.2351C197.163 80.5493 197.963 80.1735 198.754 80.1266C198.895 80.1078 199.027 80.0984 199.158 80.0984ZM203.065 70.7885C202.34 70.7885 201.597 70.9106 200.815 71.1548C198.754 71.8406 196.692 73.2122 194.517 75.1099C192.408 77.064 190.554 79.2811 189.076 81.8646C187.541 84.3447 186.534 86.9282 186.007 89.6244C185.433 92.2549 185.48 94.7914 186.12 97.2151C186.751 99.5356 187.805 101.18 189.396 102.016C190.394 102.608 191.486 102.899 192.7 102.899C193.34 102.899 194.018 102.814 194.734 102.655C196.739 102.175 198.914 101.067 201.182 99.3289C203.301 97.5909 205.146 95.5335 206.68 93.1004C208.271 90.6202 209.326 88.0367 209.853 85.1902C210.38 82.3906 210.333 79.7038 209.646 77.064C209.006 74.4805 207.791 72.6298 206.257 71.634C205.259 71.0797 204.195 70.7885 203.065 70.7885Z" fill="#DFBBFE"/>
<path fill-rule="evenodd" clip-rule="evenodd" d="M225.961 47.5558C225.584 47.5558 225.179 47.6122 224.765 47.7343C223.494 48.0443 222.176 48.9462 220.802 50.2614C218.156 52.9012 216.518 56.1705 215.935 60.182C215.351 58.9701 215.191 58.2843 214.617 57.1194C212.075 59.5995 210.804 60.7644 208.158 63.2916C210.597 71.2111 212.818 79.1776 214.72 87.3039C217.516 84.9271 218.947 83.7152 221.696 81.4981C220.425 76.0587 219.738 73.3718 218.316 68.1485C218.053 67.0963 217.996 66.0347 218.053 64.9262C218.203 63.874 218.467 62.9252 218.891 61.9763C219.314 61.0745 219.898 60.3417 220.538 59.6559C221.235 59.0359 221.875 58.6695 222.449 58.6695C222.609 58.6695 222.76 58.6977 222.91 58.754C223.551 58.9701 224.125 59.7029 224.445 60.9711C226.083 66.8802 226.827 69.8395 228.201 75.9553C230.95 73.5785 232.325 72.3666 235.017 70.0462C233.332 62.9252 232.428 59.4398 230.583 52.5818C230.046 50.5808 229.209 49.2092 228.201 48.3637C227.514 47.8282 226.78 47.5558 225.961 47.5558Z" fill="#DFBBFE"/>
<path fill-rule="evenodd" clip-rule="evenodd" d="M250.513 20.9316C247.5 24.0976 245.966 25.7322 242.84 28.9451C242.266 31.9514 241.89 33.4827 241.259 36.4889C240.628 39.3918 240.355 40.8761 239.781 43.6663C239.254 41.4022 238.877 40.2937 238.293 37.9732C236.815 32.5338 236.025 29.847 234.387 24.5673C231.798 27.3105 230.47 28.6821 227.881 31.4253C231.581 43.4033 234.857 55.4376 237.823 67.6223C240.515 65.3018 241.843 64.0899 244.488 61.7131C243.688 58.2841 243.264 56.5368 242.37 53.1641C242.793 51.6892 243.001 51.0034 243.377 49.5285C244.271 50.3176 244.752 50.7404 245.589 51.5295C247.651 53.3238 248.658 54.2163 250.56 56.1704C253.733 53.2675 255.267 51.8489 258.393 48.993C253.686 44.9346 251.2 43.0838 246.277 39.6079C247.764 33.3793 249.186 27.2072 250.513 20.9316Z" fill="#DFBBFE"/>
<path fill-rule="evenodd" clip-rule="evenodd" d="M265.369 6.57678C263.571 6.57678 261.349 7.94837 258.807 10.6916C256.011 13.6508 254.157 16.704 253.206 19.87C252.255 23.0923 252.198 26.0985 252.999 29.1048C253.686 31.5849 254.684 33.0598 256.115 33.539C256.407 33.6423 256.727 33.6893 257.066 33.6893C258.318 33.6893 259.88 32.9941 261.669 31.5849C263.091 30.5327 263.778 30.0066 265.152 28.9451C265.764 28.4378 266.282 28.2499 266.687 28.2499C266.743 28.2499 266.8 28.2593 266.847 28.2593C267.327 28.3156 267.591 28.7384 267.798 29.5275C268.061 30.4764 268.014 31.4816 267.591 32.4304C267.167 33.4356 266.527 34.3845 265.529 35.3803C264.559 36.2634 263.787 36.7331 263.185 36.7331C263.1 36.7331 263.015 36.7237 262.931 36.7049C262.356 36.6016 261.829 35.9627 261.406 34.9106C259.08 37.3907 257.856 38.6026 255.484 40.9794C256.633 44.3426 258.28 46.0618 260.389 46.0618C262.149 46.0618 264.239 44.8781 266.64 42.4543C269.596 39.7111 271.61 36.7049 272.768 33.4356C273.936 30.1569 273.983 26.5213 273.088 22.6132C272.288 19.1936 270.886 17.4838 268.899 17.4838C267.609 17.4838 266.084 18.2072 264.314 19.6633C262.931 20.7719 262.3 21.3543 260.925 22.4065C260.135 23.0359 259.551 23.299 259.127 23.299C258.657 23.299 258.393 22.989 258.176 22.2468C257.969 21.5046 258.12 20.6685 258.44 19.823C258.807 18.9211 259.391 18.132 260.182 17.2395C261.189 16.2343 262.036 15.7082 262.563 15.7082C263.091 15.7082 263.571 16.1779 263.938 17.1268C266.263 14.6466 267.374 13.3878 269.596 10.9076C268.589 8.05171 267.167 6.68012 265.369 6.57678Z" fill="#DFBBFE"/>
<path fill-rule="evenodd" clip-rule="evenodd" d="M145.46 166.538C145.356 166.538 145.253 166.538 145.14 166.547C144.292 166.594 143.342 166.857 142.344 167.393C141.233 167.966 140.386 168.605 139.482 169.497C138.635 170.286 137.947 171.235 137.477 172.193C136.997 173.142 136.733 173.988 136.733 174.777C136.733 175.622 136.949 176.195 137.42 176.674C137.9 177.144 138.587 177.36 139.378 177.36C140.226 177.36 141.12 177.097 142.184 176.618C143.182 176.148 144.132 175.462 145.036 174.561C145.883 173.715 146.571 172.823 147.098 171.817C147.625 170.822 147.889 169.92 147.889 169.074C147.889 168.229 147.625 167.599 147.154 167.12C146.731 166.707 146.194 166.538 145.46 166.538Z" fill="#DFBBFE"/>
<path fill-rule="evenodd" clip-rule="evenodd" d="M186.383 128.809C186.129 128.809 185.866 128.828 185.583 128.875C184.265 129.035 182.787 129.72 181.149 130.773C179.558 131.938 178.137 133.196 176.913 134.681C175.698 136.156 174.701 137.79 173.957 139.585C173.223 138.899 172.338 138.608 171.264 138.608C171.095 138.608 170.916 138.617 170.728 138.636C169.466 138.843 167.979 139.425 166.237 140.59C163.168 142.591 160.899 145.231 159.261 148.444C159.045 147.448 158.998 146.969 158.781 145.964C155.562 147.974 153.971 148.979 150.638 150.98C151.278 157.735 151.382 164.753 151.062 171.507C154.761 169.713 156.512 168.764 160.212 166.857C160.316 161.897 160.259 159.576 160.052 154.888C159.996 154.09 160.156 153.197 160.476 152.408C160.739 151.506 161.21 150.764 161.794 150.031C162.434 149.289 163.121 148.707 163.912 148.237C164.496 147.918 165.023 147.711 165.493 147.711C165.974 147.711 166.397 147.918 166.708 148.237C167.028 148.66 167.188 149.083 167.245 149.712C167.612 154.888 167.668 157.575 167.668 163.005C171.151 161.107 172.902 160.215 176.339 158.364C176.282 153.141 176.179 150.557 175.802 145.597C175.698 144.752 175.858 143.859 176.122 143.014C176.386 142.065 176.866 141.276 177.393 140.534C177.92 139.744 178.607 139.162 179.295 138.683C179.869 138.326 180.396 138.119 180.886 138.119C181.121 138.119 181.347 138.166 181.573 138.269C182.26 138.532 182.571 139.162 182.731 140.327C183.211 145.813 183.371 148.66 183.522 154.409C186.854 152.511 188.492 151.666 191.768 149.768C191.505 143.22 191.241 140.054 190.554 133.835C190.394 131.985 189.82 130.613 188.972 129.767C188.257 129.138 187.4 128.809 186.383 128.809Z" fill="#DFBBFE"/>
<path fill-rule="evenodd" clip-rule="evenodd" d="M207.114 120.937C207.246 120.937 207.387 120.946 207.528 120.955C208.319 121.068 209.006 121.491 209.533 122.224C210.07 122.966 210.381 123.971 210.541 125.079C210.644 126.291 210.597 127.55 210.277 128.875C209.91 130.19 209.486 131.355 208.799 132.407C208.112 133.459 207.321 134.145 206.521 134.681C205.881 135.075 205.278 135.263 204.675 135.263C204.478 135.263 204.29 135.244 204.092 135.207C203.301 135.103 202.661 134.624 202.134 133.882C201.663 133.149 201.343 132.201 201.183 131.092C201.079 129.88 201.183 128.715 201.446 127.447C201.814 126.235 202.294 125.079 202.877 124.018C203.565 123.022 204.299 122.177 205.099 121.594C205.758 121.153 206.417 120.937 207.114 120.937ZM211.416 112.087C211.115 112.087 210.804 112.106 210.484 112.153C208.535 112.359 206.361 113.308 204.148 114.896C201.927 116.427 199.968 118.485 198.227 120.749C196.476 123.069 195.158 125.549 194.254 128.236C193.416 130.932 193.04 133.572 193.36 136.315C193.52 138.899 194.367 140.9 195.628 142.224C196.852 143.436 198.462 144.075 200.373 144.075C200.449 144.075 200.524 144.066 200.599 144.066C202.614 144.019 204.836 143.333 207.161 142.008C209.486 140.74 211.491 138.899 213.289 136.625C215.031 134.361 216.462 131.825 217.309 128.922C218.204 126.028 218.467 123.172 218.157 120.27C217.78 117.32 216.829 115.159 215.511 113.834C214.4 112.679 213.016 112.087 211.416 112.087Z" fill="#DFBBFE"/>
<path fill-rule="evenodd" clip-rule="evenodd" d="M235.733 92.8845C235.667 92.8845 235.61 92.8939 235.544 92.8939C234.33 92.9973 232.956 93.5797 231.581 94.6319C228.832 96.7926 226.987 99.8552 225.98 103.923C225.66 102.495 225.453 101.809 225.132 100.438C222.44 102.439 221.066 103.444 218.42 105.445C219.898 114.313 221.009 123.229 221.753 132.2C224.765 130.35 226.243 129.401 229.096 127.55C228.569 121.538 228.201 118.531 227.411 112.679C227.251 111.467 227.251 110.358 227.458 109.25C227.674 108.188 228.098 107.239 228.569 106.394C228.992 105.501 229.623 104.872 230.367 104.289C230.894 103.895 231.421 103.679 231.882 103.679C232.165 103.679 232.419 103.763 232.645 103.923C233.332 104.289 233.699 105.238 233.906 106.61C234.857 113.148 235.281 116.427 235.921 123.285C238.83 121.434 240.308 120.542 243.114 118.635C242.53 112.2 241.626 105.708 240.628 99.2728C240.308 97.0557 239.621 95.4774 238.774 94.3689C237.87 93.3636 236.872 92.8845 235.733 92.8845Z" fill="#DFBBFE"/>
<path fill-rule="evenodd" clip-rule="evenodd" d="M262.196 71.0515C259.127 73.635 257.489 74.9502 254.373 77.5901C253.526 80.5493 253.159 82.1276 252.255 85.0869C251.511 87.877 251.144 89.305 250.297 92.1046C249.929 89.6244 249.722 88.3562 249.299 85.876C248.235 79.9669 247.708 77.0076 246.493 71.3146C243.848 73.5786 242.53 74.6872 239.828 76.9606C242.577 90.1505 244.535 103.444 246.07 116.793C248.922 114.896 250.297 114.05 253.102 112.152C252.622 108.244 252.415 106.347 251.888 102.551C252.415 101.18 252.678 100.437 253.206 99.0095C253.996 100.015 254.373 100.541 255.164 101.649C256.905 103.97 257.809 105.238 259.551 107.718C262.883 105.445 264.521 104.393 267.751 102.072C263.514 96.5857 261.292 94.0492 256.858 89.305C258.703 83.2362 260.558 77.1673 262.196 71.0515Z" fill="#DFBBFE"/>
<path fill-rule="evenodd" clip-rule="evenodd" d="M276.402 59.5902C274.849 59.5902 273.013 60.5578 270.81 62.3992C268.014 64.8229 265.999 67.5661 264.889 70.5724C263.834 73.5786 263.571 76.7445 264.098 80.0232C264.578 82.8698 265.416 84.6077 266.79 85.3969C267.308 85.7069 267.911 85.8666 268.579 85.8666C269.633 85.8666 270.876 85.4814 272.298 84.7111C273.719 83.9219 274.463 83.4992 275.837 82.7664C276.346 82.5409 276.779 82.4 277.118 82.4C277.278 82.4 277.409 82.4282 277.522 82.494C277.946 82.71 278.219 83.2361 278.323 84.138C278.483 85.1902 278.323 86.139 277.946 87.0879C277.522 88.0367 276.788 88.8259 275.734 89.6244C274.858 90.2162 274.19 90.5075 273.672 90.5075C273.493 90.5075 273.333 90.4793 273.192 90.4135C272.561 90.1505 272.081 89.4083 271.761 88.1401C269.276 90.0941 268.061 91.0993 265.576 93.0534C266.517 97.4218 268.315 99.6389 270.961 99.6389C272.495 99.6389 274.322 98.8874 276.421 97.3748C279.481 95.2705 281.655 92.5743 282.973 89.4083C284.244 86.2424 284.611 82.447 283.981 78.2289C283.322 73.9168 281.778 71.7843 279.386 71.7843C278.313 71.7843 277.08 72.207 275.677 73.0525C274.303 73.8417 273.672 74.2644 272.241 75.0629C271.629 75.3823 271.102 75.589 270.735 75.589C270.622 75.589 270.528 75.5702 270.443 75.5327C270.019 75.4293 269.756 75.0066 269.596 74.2174C269.492 73.3156 269.596 72.5264 270.019 71.7373C270.443 70.8918 271.027 70.1496 271.817 69.5202C272.702 68.731 273.455 68.3928 273.992 68.3928C274.058 68.3928 274.133 68.4022 274.199 68.4116C274.726 68.5713 275.094 69.1538 275.461 70.2624C277.795 68.2519 278.953 67.1434 281.232 65.1424C280.384 61.9764 279.057 60.1821 277.315 59.7029C277.023 59.6278 276.722 59.5902 276.402 59.5902Z" fill="#DFBBFE"/>
<path fill-rule="evenodd" clip-rule="evenodd" d="M140.291 204.247C139.792 204.247 139.237 204.37 138.634 204.633C137.683 204.952 136.733 205.581 135.782 206.38C134.887 207.169 134.04 208.062 133.457 209.067C132.826 210.072 132.402 211.021 132.186 211.913C131.922 212.862 131.978 213.708 132.242 214.29C132.506 214.873 133.033 215.239 133.72 215.455C133.984 215.511 134.257 215.54 134.539 215.54C135.048 215.54 135.594 215.446 136.205 215.239C137.156 214.873 138.107 214.347 139.011 213.604C139.962 212.862 140.752 212.026 141.44 211.021C142.127 210.016 142.607 209.01 142.814 208.062C142.974 207.113 142.974 206.324 142.654 205.638C142.344 204.952 141.863 204.586 141.12 204.37C140.865 204.294 140.592 204.247 140.291 204.247Z" fill="#DFBBFE"/>
<path fill-rule="evenodd" clip-rule="evenodd" d="M186.939 170.887C185.79 170.887 184.444 171.301 182.947 171.977C181.093 172.823 179.558 173.931 178.08 175.359C176.602 176.731 175.331 178.365 174.277 180.207C173.59 179.155 172.582 178.572 171.368 178.412C171.18 178.394 170.991 178.375 170.794 178.375C169.673 178.375 168.327 178.751 166.708 179.474C163.385 181.052 160.579 183.429 158.414 186.802C158.461 185.59 158.461 185.007 158.518 183.795C155.025 185.327 153.227 186.069 149.64 187.591C148.576 195.717 147.042 203.74 145.093 211.65C148.84 210.279 150.742 209.593 154.714 208.278C156.089 202.894 156.936 200.095 157.774 194.505C157.934 193.5 158.254 192.551 158.725 191.706C159.205 190.757 159.789 189.968 160.523 189.282C161.267 188.54 162.01 188.014 162.905 187.647C163.3 187.478 163.677 187.403 164.006 187.403C164.204 187.403 164.383 187.431 164.543 187.488C165.023 187.591 165.39 187.91 165.606 188.389C165.757 188.859 165.87 189.498 165.757 190.231C164.966 196.3 164.015 199.465 162.481 205.431C166.181 204.106 167.979 203.421 171.679 202.105C173.11 196.403 174.117 193.453 174.804 187.591C174.908 186.595 175.171 185.59 175.651 184.641C176.075 183.692 176.649 182.903 177.337 182.161C178.024 181.419 178.767 180.893 179.511 180.573C179.954 180.338 180.396 180.226 180.782 180.226C181.168 180.226 181.516 180.338 181.78 180.573C182.307 181.052 182.571 181.898 182.467 183.269C181.836 189.705 180.773 192.974 179.351 199.259C182.994 197.934 184.793 197.305 188.332 195.98C189.82 188.812 190.818 185.064 191.298 177.83C191.505 175.622 191.194 173.931 190.507 172.766C189.82 171.658 188.812 171.028 187.494 170.925C187.315 170.897 187.127 170.887 186.939 170.887Z" fill="#DFBBFE"/>
<path fill-rule="evenodd" clip-rule="evenodd" d="M208.969 167.27C209.298 167.27 209.609 167.346 209.91 167.496C210.644 167.806 211.284 168.445 211.708 169.45C212.075 170.342 212.282 171.554 212.235 172.926C212.132 174.298 211.812 175.726 211.228 177.097C210.541 178.412 209.797 179.624 208.903 180.629C208.055 181.635 207.105 182.32 206.154 182.687C205.645 182.912 205.175 183.016 204.76 183.016C204.393 183.016 204.073 182.94 203.772 182.79C203.085 182.424 202.614 181.794 202.35 180.846C202.087 179.887 201.974 178.732 202.087 177.417C202.134 176.045 202.454 174.72 202.925 173.405C203.461 172.033 204.092 170.822 204.883 169.816C205.674 168.811 206.521 168.125 207.425 167.703C207.989 167.421 208.498 167.27 208.969 167.27ZM213.082 158.139C211.407 158.139 209.599 158.675 207.585 159.689C205.146 160.901 203.038 162.583 200.919 164.753C198.914 166.857 197.22 169.337 195.892 172.193C194.518 174.983 193.784 177.99 193.52 181.156C193.36 184.321 193.2 186.642 194.047 188.389C194.941 190.127 196.372 191.132 198.331 191.555C198.914 191.677 199.536 191.743 200.195 191.743C201.682 191.743 203.32 191.414 205.043 190.757C207.585 189.808 210.014 188.333 212.235 186.276C214.457 184.275 216.255 181.682 217.733 178.732C219.164 175.726 220.218 172.56 220.266 169.234C220.426 165.805 219.898 163.165 218.74 161.324C217.573 159.529 216.039 158.421 214.08 158.205C213.751 158.167 213.421 158.139 213.082 158.139Z" fill="#DFBBFE"/>
<path fill-rule="evenodd" clip-rule="evenodd" d="M240.581 143.343C239.508 143.343 238.312 143.671 237.079 144.329C234.123 145.964 231.958 148.923 230.423 153.094C230.207 151.45 230.159 150.661 230.046 149.026C227.194 150.614 225.716 151.3 222.864 152.878C222.911 163.118 222.383 173.189 221.64 183.429C224.972 182.104 226.61 181.475 230.103 180.16C230.207 173.405 230.687 169.92 230.79 163.165C230.79 161.793 230.95 160.525 231.317 159.37C231.637 158.205 232.108 157.209 232.692 156.41C233.332 155.621 234.019 154.992 234.754 154.616C235.149 154.409 235.535 154.306 235.893 154.306C236.335 154.306 236.731 154.475 237.032 154.832C237.606 155.415 237.879 156.467 237.879 158.101C237.879 164.49 237.502 170.765 237.606 177.144C240.835 175.772 242.473 175.199 245.589 173.875C245.439 166.491 245.439 159.107 245.326 151.722C245.279 149.186 244.855 147.232 244.111 145.813C243.424 144.442 242.37 143.596 241.202 143.38C241.005 143.352 240.797 143.343 240.581 143.343Z" fill="#DFBBFE"/>
<path fill-rule="evenodd" clip-rule="evenodd" d="M254.157 122.75C251.304 124.497 249.93 125.39 247.077 127.137C248.075 142.225 248.188 157.312 248.762 172.456C251.935 171.084 253.469 170.502 256.482 169.177C256.115 164.753 255.955 162.582 255.851 158.205C256.482 156.833 256.858 156.1 257.489 154.672C258.176 156.1 258.497 156.73 259.231 158.158C260.869 161.324 261.716 162.855 263.627 166.068C267.27 164.489 269.069 163.644 272.561 162.056C268.852 156.57 265.529 150.764 262.196 145.015C264.785 139.002 267.11 132.83 269.389 126.658C266.103 128.612 264.418 129.617 261.085 131.515C259.918 134.568 259.344 136.052 258.176 139.059C257.169 141.905 256.642 143.38 255.484 146.283C255.427 143.38 255.427 142.008 255.267 139.162C254.947 132.464 254.684 129.194 254.157 122.75Z" fill="#DFBBFE"/>
<path fill-rule="evenodd" clip-rule="evenodd" d="M283.143 117.968C281.834 117.968 280.29 118.503 278.53 119.584C275.574 121.378 273.352 123.811 272.024 126.818C270.706 129.88 270.076 133.149 270.283 136.898C270.499 140.054 271.13 142.271 272.345 143.483C273.107 144.254 274.143 144.639 275.414 144.639C276.157 144.639 276.995 144.498 277.899 144.225C279.377 143.756 280.064 143.54 281.542 143.07C281.862 142.976 282.154 142.92 282.408 142.92C282.747 142.92 283.03 143.014 283.237 143.22C283.66 143.54 283.924 144.122 283.98 145.127C284.131 146.283 283.924 147.335 283.444 148.237C282.973 149.186 282.229 149.815 281.119 150.454C280.422 150.783 279.829 150.961 279.339 150.961C278.981 150.961 278.671 150.867 278.426 150.661C277.795 150.191 277.315 149.242 277.052 147.758C274.463 149.289 273.192 150.031 270.499 151.506C271.309 157.425 273.766 160.393 277.381 160.393C278.69 160.393 280.158 159.999 281.759 159.21C285.091 157.631 287.304 155.255 288.631 152.192C289.949 149.082 290.326 145.071 289.949 140.327C289.525 134.671 287.887 131.881 284.818 131.881C284.046 131.881 283.19 132.06 282.229 132.407C280.808 132.886 280.064 133.149 278.69 133.675C278.275 133.816 277.899 133.882 277.579 133.882C277.287 133.882 277.042 133.826 276.835 133.732C276.468 133.459 276.261 132.933 276.204 132.088C276.148 131.139 276.308 130.35 276.788 129.504C277.259 128.715 277.946 128.133 278.793 127.55C279.603 127.118 280.205 126.902 280.676 126.902C280.883 126.902 281.062 126.949 281.231 127.024C281.759 127.287 282.126 128.029 282.286 129.298C284.771 127.71 285.986 126.977 288.415 125.343C287.887 121.754 286.833 119.377 285.138 118.485C284.555 118.137 283.886 117.968 283.143 117.968Z" fill="#DFBBFE"/>
<path fill-rule="evenodd" clip-rule="evenodd" d="M129.183 243.047C128.797 243.047 128.354 243.103 127.855 243.207C126.848 243.413 125.954 243.892 124.946 244.465C123.996 245.151 123.092 245.893 122.357 246.683C121.614 247.472 121.143 248.374 120.823 249.163C120.559 249.952 120.503 250.694 120.663 251.323C120.87 251.906 121.35 252.329 122.037 252.592C122.405 252.733 122.791 252.798 123.205 252.798C123.581 252.798 123.967 252.742 124.363 252.648C125.37 252.432 126.321 252.066 127.328 251.483C128.326 250.957 129.173 250.328 129.964 249.426C130.764 248.58 131.235 247.744 131.555 246.899C131.922 245.997 131.922 245.208 131.715 244.625C131.499 243.996 131.028 243.517 130.341 243.254C130.002 243.113 129.625 243.047 129.183 243.047Z" fill="#DFBBFE"/>
<path fill-rule="evenodd" clip-rule="evenodd" d="M178.221 216.855C177.242 216.855 176.169 217.024 175.011 217.353C173.053 217.935 171.207 218.771 169.569 219.936C167.875 221.045 166.34 222.473 164.919 224.154C164.439 222.943 163.544 222.2 162.433 221.937C162.038 221.853 161.614 221.806 161.144 221.806C160.193 221.806 159.082 221.994 157.773 222.417C154.29 223.469 151.278 225.582 148.632 228.589C148.896 227.424 149.056 226.851 149.32 225.686C145.827 226.738 144.085 227.32 140.649 228.429C138.371 235.813 135.942 243.15 133.4 250.431C136.996 249.482 138.851 249.116 142.814 248.11C144.452 243.207 145.3 240.726 146.834 235.71C147.154 234.761 147.578 233.915 148.152 233.126C148.792 232.337 149.423 231.651 150.27 231.069C151.061 230.543 151.852 230.12 152.756 229.857C153.076 229.754 153.377 229.697 153.65 229.697C153.914 229.697 154.158 229.754 154.337 229.857C154.817 230.064 155.081 230.383 155.241 230.853C155.345 231.332 155.345 231.914 155.185 232.6C153.546 238.246 152.756 240.989 151.061 246.476C155.024 245.687 157.039 245.367 161.162 244.625C162.48 239.298 163.168 236.612 164.495 231.276C164.702 230.327 165.126 229.434 165.71 228.589C166.34 227.8 166.98 227.057 167.771 226.428C168.618 225.846 169.409 225.423 170.2 225.216C170.614 225.113 170.981 225.056 171.311 225.056C171.866 225.056 172.299 225.216 172.629 225.582C173.166 226.005 173.316 226.954 173.053 228.166C171.735 234.235 171.104 237.241 169.88 243.15C174.116 242.464 176.282 242.145 180.565 241.516C181.572 234.761 182.1 231.332 183.258 224.418C183.578 222.36 183.474 220.679 182.834 219.41C182.26 218.198 181.252 217.353 179.878 217.033C179.36 216.911 178.805 216.855 178.221 216.855Z" fill="#DFBBFE"/>
<path fill-rule="evenodd" clip-rule="evenodd" d="M203.423 217.193C204.12 217.193 204.788 217.343 205.362 217.663C206.257 218.142 206.897 218.828 207.424 219.936C208.008 220.988 208.158 222.2 208.158 223.469C208.111 224.84 207.848 226.165 207.264 227.377C206.633 228.589 205.833 229.641 204.835 230.439C203.828 231.275 202.717 231.755 201.55 231.914C201.267 231.952 200.975 231.971 200.702 231.971C199.865 231.971 199.093 231.792 198.377 231.435C197.426 231.012 196.739 230.28 196.268 229.274C195.845 228.222 195.628 227.114 195.741 225.845C195.892 224.577 196.268 223.262 196.899 222.097C197.586 220.885 198.377 219.88 199.337 218.987C200.335 218.142 201.343 217.559 202.397 217.296C202.745 217.231 203.084 217.193 203.423 217.193ZM207.546 208.898C206.144 208.898 204.666 209.123 203.084 209.546C200.232 210.279 197.643 211.547 195.157 213.341C192.672 215.192 190.507 217.296 188.756 219.88C187.014 222.416 185.847 225.16 185.48 228.109C185.056 231.012 185.48 233.333 186.751 235.24C188.021 237.081 189.923 238.453 192.512 239.195C194.244 239.674 196.118 239.909 198.113 239.909C199.158 239.909 200.232 239.843 201.343 239.721C204.572 239.298 207.584 238.293 210.277 236.762C212.969 235.24 215.031 233.07 216.518 230.439C217.996 227.846 218.58 224.897 218.467 221.627C218.42 218.245 217.573 215.502 216.198 213.445C214.767 211.34 212.969 210.016 210.644 209.33C209.655 209.029 208.629 208.898 207.546 208.898Z" fill="#DFBBFE"/>
<path fill-rule="evenodd" clip-rule="evenodd" d="M240.854 199.541C240.016 199.541 239.141 199.672 238.247 199.945C234.65 200.941 232.062 203.477 230.367 207.432C230.103 205.798 229.943 204.896 229.736 203.214C226.347 204.163 224.606 204.633 221.113 205.581C221.273 215.718 221.8 225.845 222.647 235.973C226.987 235.39 229.209 235.127 233.596 234.601C232.645 227.903 232.165 224.577 231.534 217.822C231.374 216.451 231.534 215.239 231.845 214.187C232.269 213.078 232.692 212.233 233.436 211.491C234.17 210.758 235.018 210.279 235.921 210.072C236.223 210.006 236.524 209.969 236.806 209.969C237.635 209.969 238.35 210.26 238.981 210.805C239.781 211.547 240.308 212.759 240.515 214.346C241.363 220.678 242.474 227.057 243.744 233.333C248.028 232.76 250.137 232.497 254.373 231.858C252.622 224.417 250.984 217.033 249.562 209.546C249.139 206.906 248.395 204.792 247.237 203.158C246.07 201.579 244.799 200.471 243.264 199.945C242.502 199.672 241.692 199.541 240.854 199.541Z" fill="#DFBBFE"/>
<path fill-rule="evenodd" clip-rule="evenodd" d="M257.856 181.156C254.636 182.368 252.998 182.903 249.722 184.115C251.671 200.095 254.74 215.558 258.703 231.172C262.883 230.589 264.888 230.279 268.965 229.641C267.59 225.216 266.903 223.102 265.736 218.668C266.319 217.4 266.583 216.714 267.167 215.455C268.485 216.977 269.068 217.775 270.386 219.307C273.455 222.783 274.99 224.633 278.219 228.166C282.916 227.377 285.195 226.897 289.582 226.005C283.34 219.673 277.212 213.238 271.29 206.587C273.719 199.729 274.773 196.196 276.891 188.962C273.088 190.287 271.13 190.87 267.27 192.241C266.263 195.135 265.792 196.563 264.785 199.465C263.89 202.312 263.41 203.637 262.46 206.38C261.829 203.421 261.556 201.889 260.925 198.939C259.447 191.818 258.807 188.277 257.856 181.156Z" fill="#DFBBFE"/>
<path fill-rule="evenodd" clip-rule="evenodd" d="M290.872 182.922C289.648 182.922 288.33 183.213 286.89 183.796C283.604 185.064 281.382 187.121 280.224 190.024C279.057 192.814 279.01 196.196 280.168 200.151C281.119 203.421 282.606 205.854 284.611 207.376C286.334 208.653 288.452 209.33 290.928 209.33C291.333 209.33 291.747 209.32 292.171 209.283C294.026 209.067 294.92 209.01 296.662 208.804C296.803 208.794 296.944 208.794 297.076 208.794C297.791 208.794 298.394 208.926 298.883 209.283C299.523 209.649 299.994 210.382 300.371 211.387C300.841 212.599 300.945 213.604 300.578 214.45C300.258 215.239 299.363 215.821 298.092 216.188C297.594 216.329 297.113 216.404 296.652 216.404C295.918 216.404 295.249 216.216 294.656 215.821C293.809 215.239 292.915 214.13 292.171 212.599C289.158 213.604 287.577 214.083 284.348 215.032C286.635 221.063 291.945 225.592 298.281 225.592C299.25 225.592 300.248 225.488 301.265 225.263C305.068 224.37 307.394 222.416 308.241 219.513C309.041 216.667 308.401 212.599 306.443 207.639C303.892 201.128 300.7 197.906 296.078 197.906C295.541 197.906 294.976 197.953 294.393 198.038C292.802 198.357 291.907 198.413 290.213 198.676C289.996 198.695 289.78 198.714 289.573 198.714C288.923 198.714 288.339 198.582 287.944 198.301C287.417 197.991 286.937 197.408 286.673 196.459C286.41 195.454 286.466 194.665 286.89 193.923C287.304 193.19 288.048 192.608 288.951 192.288C289.573 192.044 290.128 191.931 290.618 191.931C291.07 191.931 291.465 192.035 291.804 192.241C292.538 192.608 293.122 193.5 293.762 194.825C296.351 193.716 297.622 193.077 300.098 191.865C298.516 188.014 296.662 185.327 294.553 183.955C293.423 183.269 292.209 182.922 290.872 182.922Z" fill="#DFBBFE"/>
<path fill-rule="evenodd" clip-rule="evenodd" d="M114.61 277.966C114.365 277.966 114.111 277.985 113.847 278.023C112.84 278.126 111.832 278.446 110.825 278.925C109.724 279.498 108.876 280.08 108.029 280.822C107.238 281.555 106.655 282.297 106.278 283.04C105.911 283.829 105.751 284.514 105.967 285.097C106.175 285.726 106.551 286.205 107.238 286.469C107.728 286.713 108.359 286.797 109.14 286.797C109.357 286.797 109.583 286.797 109.827 286.779C110.825 286.675 111.832 286.469 112.84 285.989C113.847 285.52 114.798 284.984 115.589 284.251C116.379 283.509 117.02 282.776 117.33 281.978C117.65 281.245 117.81 280.503 117.594 279.817C117.387 279.131 117.02 278.662 116.332 278.342C115.824 278.107 115.269 277.966 114.61 277.966Z" fill="#DFBBFE"/>
<path fill-rule="evenodd" clip-rule="evenodd" d="M167.357 260.079C166.84 260.079 166.312 260.098 165.757 260.136C163.488 260.295 161.323 260.821 159.412 261.723C157.35 262.569 155.608 263.677 154.074 265.049C153.387 263.828 152.389 262.992 151.061 262.512C150.214 262.212 149.141 262.052 147.926 262.052C147.249 262.052 146.533 262.099 145.78 262.193C141.92 262.672 138.635 264.25 135.735 266.731C136.102 265.678 136.206 265.152 136.526 264.044C132.77 264.57 130.972 264.833 127.535 265.519C124.787 272.33 121.83 279.028 118.865 285.726C122.725 285.36 124.787 285.247 129.07 284.984C130.925 280.343 131.819 278.079 133.56 273.382C133.937 272.48 134.408 271.747 135.048 271.108C135.679 270.423 136.47 269.897 137.373 269.427C138.221 269.004 139.171 268.685 140.122 268.628C140.31 268.609 140.489 268.591 140.659 268.591C141.148 268.591 141.563 268.703 141.92 268.901C142.447 269.164 142.711 269.53 142.918 270C143.078 270.479 143.078 271.108 142.871 271.691C141.12 276.914 140.226 279.554 138.484 284.721C143.135 284.618 145.564 284.618 150.534 284.618C151.805 279.61 152.492 277.074 153.81 271.954C154.074 271.108 154.498 270.272 155.185 269.53C155.825 268.788 156.616 268.262 157.567 267.792C158.517 267.416 159.468 267.153 160.476 267.05C160.579 267.05 160.683 267.041 160.786 267.041C161.897 267.041 162.754 267.313 163.432 267.896C164.175 268.478 164.439 269.37 164.175 270.582C163.008 276.332 162.481 279.131 161.323 284.834C166.604 284.937 169.25 284.984 174.804 285.2C175.538 278.605 175.915 275.336 176.762 268.685C176.913 266.684 176.602 264.993 175.698 263.677C174.851 262.306 173.589 261.348 171.838 260.774C170.511 260.286 169.024 260.079 167.357 260.079Z" fill="#DFBBFE"/>
<path fill-rule="evenodd" clip-rule="evenodd" d="M201.54 265.519C202.849 265.519 204.025 265.829 205.202 266.421C206.417 266.994 207.424 267.895 208.271 269.004C209.062 270.16 209.533 271.381 209.589 272.64C209.646 273.964 209.382 275.176 208.742 276.285C208.055 277.337 207.047 278.182 205.786 278.812C204.515 279.394 203.084 279.761 201.549 279.817C199.968 279.761 198.593 279.394 197.322 278.765C196.004 278.079 195.101 277.177 194.366 276.125C193.679 275.073 193.256 273.908 193.359 272.64C193.416 271.381 193.726 270.216 194.47 269.164C195.204 268.055 196.165 267.21 197.379 266.524C198.593 265.941 199.864 265.519 201.239 265.519C201.342 265.519 201.436 265.519 201.54 265.519ZM202.943 257.768C202.378 257.768 201.813 257.787 201.239 257.815C197.643 258.031 194.366 258.764 191.241 260.032C188.181 261.301 185.696 263.038 183.634 265.199C181.62 267.313 180.405 269.85 180.142 272.696C179.822 275.543 180.565 277.919 182.363 280.033C184.209 282.137 186.807 283.772 190.243 285.04C193.679 286.309 197.586 287.041 201.973 287.314C202.698 287.342 203.404 287.361 204.101 287.361C207.546 287.361 210.7 286.929 213.609 286.093C217.092 285.097 219.738 283.462 221.489 281.132C223.23 278.812 223.861 276.069 223.39 272.856C222.91 269.53 221.536 266.684 219.427 264.307C217.252 261.986 214.616 260.248 211.491 259.14C208.817 258.247 205.983 257.768 202.943 257.768Z" fill="#DFBBFE"/>
<path fill-rule="evenodd" clip-rule="evenodd" d="M249.082 255.899C248.79 255.899 248.489 255.908 248.188 255.917C243.377 256.134 240.044 258.078 238.143 261.564C237.606 259.826 237.343 259.027 236.815 257.289C232.165 257.505 229.839 257.552 225.132 257.768C226.507 267.736 228.145 277.703 229.943 287.727C235.864 288 238.83 288.206 244.695 288.685C243 281.978 242.21 278.605 240.628 271.954C240.355 270.535 240.355 269.427 240.779 268.422C241.202 267.416 241.842 266.684 242.737 266.157C243.688 265.575 244.751 265.256 246.013 265.256C247.651 265.256 249.035 265.678 250.249 266.571C251.464 267.473 252.255 268.741 252.735 270.376C254.58 276.707 256.434 283.039 258.393 289.315C264.258 289.578 267.063 289.738 272.768 290.001C270.076 282.56 267.374 275.12 264.888 267.632C264.041 264.993 262.667 262.775 261.029 260.981C259.23 259.14 257.385 257.815 255.163 257.026C253.215 256.237 251.228 255.899 249.082 255.899Z" fill="#DFBBFE"/>
<path fill-rule="evenodd" clip-rule="evenodd" d="M272.928 241.779C268.645 242.258 266.526 242.464 262.092 242.944C267.063 258.877 272.608 274.594 278.689 290.207C284.347 290.47 287.096 290.527 292.434 290.743C290.429 286.252 289.478 284.035 287.624 279.61C288.414 278.549 288.734 278.023 289.478 276.867C291.323 278.549 292.171 279.394 294.072 281.132C298.309 285.04 300.474 286.994 304.917 291.006C311.149 291.156 314.162 291.156 319.923 291.156C311.366 283.828 302.799 276.548 294.336 269.107C297.038 263.038 298.148 259.826 300.05 253.278C295.136 253.804 292.594 254.02 287.303 254.546C286.353 257.129 285.825 258.501 284.714 261.037C283.764 263.518 283.34 264.786 282.229 267.21C281.118 264.203 280.544 262.719 279.433 259.713C277.155 253.804 274.99 247.848 272.928 241.779Z" fill="#DFBBFE"/>
<path fill-rule="evenodd" clip-rule="evenodd" d="M315.481 249.867C314.568 249.867 313.617 249.952 312.628 250.112C308.505 250.751 305.812 252.329 304.702 254.865C303.544 257.392 303.807 260.615 305.756 264.673C307.394 268.055 309.616 270.639 312.365 272.48C315.114 274.387 318.606 275.439 322.523 275.806C324.895 275.909 326.062 276.069 328.331 276.181C329.498 276.285 330.449 276.595 331.24 277.074C332.04 277.553 332.727 278.342 333.302 279.347C334.045 280.559 334.206 281.555 333.782 282.241C333.415 282.983 332.351 283.349 330.713 283.462C330.6 283.462 330.496 283.462 330.393 283.462C328.783 283.462 327.408 283.096 326.222 282.401C325.008 281.668 323.784 280.559 322.683 278.925C318.71 279.347 316.648 279.498 312.421 279.761C317.241 287.549 325.3 292.49 334.413 292.49C334.695 292.49 334.977 292.49 335.26 292.481C340.287 292.265 343.14 290.95 343.987 288.31C344.938 285.783 343.61 281.818 340.758 276.707C337.425 270.686 331.767 265.472 324.368 265.312C322.259 265.256 321.195 265.199 319.03 265.152C317.712 265.049 316.705 264.786 315.914 264.41C315.17 263.94 314.483 263.255 314.003 262.306C313.476 261.301 313.476 260.511 313.956 259.873C314.426 259.29 315.33 258.877 316.488 258.764C316.987 258.698 317.439 258.67 317.863 258.67C318.804 258.67 319.576 258.839 320.197 259.243C321.148 259.713 322.099 260.718 323.05 262.09C326.326 261.507 327.86 261.244 330.816 260.511C328.284 256.397 325.535 253.541 322.57 251.803C320.386 250.516 318.06 249.867 315.481 249.867Z" fill="#DFBBFE"/>
<path fill-rule="evenodd" clip-rule="evenodd" d="M97.7206 310.791C96.7133 310.791 95.706 310.998 94.5951 311.42C93.5407 311.787 92.5899 312.313 91.7991 312.999C90.9989 313.685 90.3681 314.37 90.001 315.112C89.5773 315.902 89.5209 316.587 89.6244 317.17C89.8409 317.752 90.2646 318.335 90.8953 318.645C91.4978 319.021 92.2698 319.19 93.0135 319.19C93.1171 319.19 93.23 319.18 93.3336 319.18C93.456 319.18 93.5783 319.19 93.7102 319.19C94.5857 319.19 95.48 319.021 96.4497 318.701C97.457 318.382 98.4549 317.856 99.2551 317.226C100.046 316.644 100.677 315.902 101.053 315.169C101.467 314.427 101.58 313.685 101.42 312.999C101.26 312.313 100.837 311.787 100.206 311.42C99.5187 310.998 98.7185 310.791 97.7206 310.791Z" fill="#DFBBFE"/>
<path fill-rule="evenodd" clip-rule="evenodd" d="M131.997 299.63C127.902 299.63 124.551 300.626 121.557 302.561C121.877 301.453 122.037 301.03 122.357 299.922C119.881 299.856 118.14 299.828 116.379 299.828C115.127 299.828 113.866 299.846 112.313 299.865C109.187 306.3 106.127 312.736 102.955 319.18C107.285 319.49 109.667 319.706 114.685 320.336C116.539 315.798 117.434 313.637 119.345 309.1C119.656 308.311 120.239 307.625 120.983 307.043C121.67 306.46 122.565 305.99 123.572 305.718C124.41 305.455 125.295 305.342 126.236 305.342C126.424 305.342 126.603 305.342 126.791 305.352C127.695 305.352 128.326 305.568 128.966 305.878C129.493 306.253 129.964 306.62 130.181 307.202C130.341 307.728 130.341 308.311 130.181 308.94C128.439 314.004 127.479 316.484 125.737 321.604C131.235 322.29 134.2 322.656 140.225 323.445C141.6 318.494 142.184 316.014 143.558 311.054C143.718 310.255 144.292 309.466 145.036 308.837C145.78 308.198 146.674 307.728 147.841 307.465C148.604 307.268 149.451 307.137 150.327 307.137C150.656 307.137 150.995 307.155 151.325 307.202C152.963 307.362 154.13 307.775 155.081 308.518C156.032 309.26 156.352 310.209 156.192 311.317C155.081 316.963 154.554 319.753 153.499 325.352C159.995 326.301 163.384 326.771 170.2 327.833C170.84 321.341 171.151 318.119 171.838 311.58C172.055 309.682 171.471 307.888 170.304 306.357C169.089 304.825 167.348 303.614 165.126 302.768C162.904 301.876 160.315 301.34 157.51 301.133C156.681 301.068 155.881 301.039 155.1 301.039C153.142 301.039 151.334 301.227 149.64 301.603C147.305 302.139 145.196 302.928 143.398 304.083C142.551 302.768 141.233 301.66 139.595 300.917C137.9 300.185 135.735 299.809 133.193 299.658C132.788 299.64 132.383 299.63 131.997 299.63Z" fill="#DFBBFE"/>
<path fill-rule="evenodd" clip-rule="evenodd" d="M201.521 312.642C202.049 312.642 202.585 312.679 203.141 312.736C204.939 312.952 206.68 313.478 208.318 314.267C209.909 315.112 211.284 316.165 212.338 317.386C213.449 318.598 214.033 319.866 214.193 321.125C214.296 322.45 213.976 323.605 213.082 324.554C212.282 325.503 211.02 326.142 209.382 326.564C208.394 326.827 207.311 326.921 206.181 326.921C205.494 326.921 204.797 326.884 204.091 326.827C202.133 326.564 200.335 325.926 198.65 325.089C196.955 324.188 195.685 323.182 194.734 321.97C193.783 320.815 193.359 319.594 193.359 318.382C193.359 317.17 193.726 316.118 194.63 315.169C195.477 314.22 196.635 313.534 198.17 313.055C199.196 312.801 200.326 312.642 201.521 312.642ZM197.567 304.769C194.837 304.769 192.314 305.004 189.923 305.455C186.007 306.141 182.834 307.465 180.405 309.26C177.92 311.054 176.602 313.318 176.386 316.165C176.178 318.908 177.289 321.444 179.615 323.868C181.996 326.301 185.32 328.359 189.763 330.2C194.15 331.994 199.121 333.319 204.619 334.268C208.234 334.869 211.689 335.179 214.908 335.179C216.49 335.179 218.015 335.104 219.474 334.954C223.918 334.531 227.354 333.319 229.623 331.365C231.901 329.467 232.645 326.827 232.061 323.605C231.374 320.336 229.623 317.273 226.723 314.643C223.918 312.003 220.321 309.786 216.198 308.198C212.018 306.517 207.584 305.511 202.821 305.032C200.985 304.854 199.243 304.769 197.567 304.769Z" fill="#DFBBFE"/>
<path fill-rule="evenodd" clip-rule="evenodd" d="M234.17 309.26C236.289 319.227 238.407 329.204 240.572 339.172C246.917 340.224 253.262 341.229 259.654 342.394C257.706 335.686 256.698 332.314 254.844 325.663C254.42 324.347 254.477 323.182 255.004 322.337C255.588 321.444 256.378 320.815 257.593 320.439C258.393 320.195 259.306 320.073 260.304 320.073C260.822 320.073 261.368 320.11 261.933 320.176C264.098 320.439 266 321.125 267.534 322.187C269.069 323.295 270.123 324.61 270.707 326.245C272.872 332.521 275.094 338.909 277.315 345.184C283.604 346.189 289.789 347.195 296.031 348.247C292.858 340.75 289.789 333.263 286.73 325.775C285.666 323.135 283.981 320.815 281.759 318.758C279.537 316.747 276.948 315.169 274.039 313.957C271.13 312.736 268.061 312.003 264.785 311.684C263.646 311.561 262.563 311.505 261.547 311.505C256.84 311.505 253.507 312.801 251.464 315.272C250.72 313.534 250.41 312.689 249.666 310.941C243.481 310.256 240.356 309.946 234.17 309.26Z" fill="#DFBBFE"/>
<path fill-rule="evenodd" clip-rule="evenodd" d="M283.34 301.876C289.902 317.856 296.661 333.582 303.59 349.402C310.886 350.567 314.482 351.093 321.515 352.146C319.35 347.664 318.182 345.447 316.073 340.966C317.128 340.017 317.655 339.651 318.662 338.693C320.931 340.647 322.098 341.596 324.367 343.493C329.602 347.824 332.303 350.041 337.688 354.522C344.193 355.471 350.642 356.317 357.147 357.219C346.632 348.933 336.05 340.703 325.535 332.37C329.394 327.147 331.032 324.404 333.725 318.645C327.276 318.222 323.897 318.015 316.968 317.433C315.65 319.706 314.906 320.862 313.372 323.079C312.101 325.193 311.366 326.301 309.879 328.359C308.457 325.352 307.77 323.868 306.396 320.862C303.487 314.906 300.634 308.837 297.885 302.824C292.171 302.505 289.215 302.289 283.34 301.876Z" fill="#DFBBFE"/>
<path fill-rule="evenodd" clip-rule="evenodd" d="M348.929 318.091C344.382 318.091 341.257 319.105 339.864 321.078C338.273 323.182 338.536 326.245 340.861 330.303C342.773 333.742 345.465 336.485 348.958 338.693C352.441 340.91 356.828 342.601 361.855 343.493C364.971 344.132 366.449 344.395 369.311 344.921C370.733 345.184 371.956 345.607 372.954 346.19C373.962 346.819 374.809 347.618 375.44 348.67C376.23 349.938 376.39 350.83 375.816 351.413C375.374 351.854 374.498 352.052 373.161 352.052C372.738 352.052 372.258 352.033 371.74 351.995C369.471 351.779 367.617 351.15 366.035 350.304C364.5 349.402 363.069 348.144 361.799 346.453C356.724 346.086 354.079 345.87 348.534 345.4C354.823 354.786 365.762 359.906 376.814 361.117C378.349 361.296 379.714 361.38 380.928 361.38C384.844 361.38 387.189 360.488 388.233 358.797C389.561 356.58 388.233 352.784 385.014 347.618C380.57 340.487 373.171 335.583 364.924 334.212C362.222 333.742 360.848 333.526 358.052 333.056C356.404 332.737 355.143 332.314 354.135 331.788C353.128 331.309 352.394 330.52 351.81 329.571C351.17 328.565 351.17 327.833 351.81 327.354C352.29 326.959 353.1 326.743 354.305 326.743C354.55 326.743 354.813 326.752 355.086 326.771C357.044 326.874 358.579 327.25 359.793 327.88C361.008 328.565 362.175 329.618 363.286 331.102C367.513 331.102 369.518 331.102 373.218 330.999C370.102 326.771 366.722 323.605 362.966 321.444C359.21 319.331 355.086 318.222 350.276 318.119C349.814 318.1 349.372 318.091 348.929 318.091Z" fill="#DFBBFE"/>
<path fill-rule="evenodd" clip-rule="evenodd" d="M80.5584 343.014C79.7864 343.014 78.9862 343.165 78.2048 343.39C77.1504 343.71 76.2561 344.132 75.4088 344.818C74.5051 345.448 73.9779 346.133 73.5542 346.875C73.2436 347.618 73.1306 348.35 73.2906 349.036C73.5072 349.675 73.9779 350.248 74.6651 350.671C75.3053 351.15 76.1996 351.413 77.1504 351.62C77.4893 351.676 77.8283 351.695 78.1578 351.695C78.8638 351.695 79.5699 351.592 80.323 351.413C81.3774 351.15 82.2247 350.774 83.1284 350.145C83.9757 349.562 84.6064 348.876 84.9266 348.087C85.3502 347.298 85.3973 346.556 85.1901 345.823C85.0771 345.081 84.6064 344.395 83.9192 343.916C83.232 343.446 82.3847 343.127 81.3774 343.08C81.1138 343.033 80.8314 343.014 80.5584 343.014Z" fill="#DFBBFE"/>
<path fill-rule="evenodd" clip-rule="evenodd" d="M96.2331 333.056C93.0606 339.538 90.048 346.086 87.092 352.568C91.9026 353.574 94.548 354.1 100.413 355.528C102.211 350.887 103.162 348.613 104.96 344.132C105.224 343.23 105.864 342.657 106.655 342.122C107.445 341.596 108.453 341.229 109.611 341.126C110.1 341.051 110.599 341.013 111.136 341.013C111.814 341.013 112.538 341.079 113.31 341.229C114.318 341.436 115.109 341.755 115.852 342.178C116.596 342.601 117.067 343.127 117.387 343.71C117.65 344.339 117.754 344.921 117.547 345.551C115.796 350.624 114.901 353.207 113.16 358.327C119.609 359.802 123.045 360.535 130.228 362.226C131.499 357.219 132.186 354.626 133.457 349.675C133.72 348.829 134.247 348.087 135.151 347.561C135.999 347.035 137.109 346.659 138.427 346.556C138.926 346.5 139.435 346.471 139.952 346.471C140.828 346.471 141.732 346.547 142.654 346.716C144.556 347.082 146.091 347.721 147.258 348.613C148.369 349.515 148.839 350.567 148.632 351.676C147.578 357.322 147.041 360.169 145.93 365.871C152.596 367.393 159.308 368.924 165.973 370.559C166.66 363.917 166.981 360.648 167.668 354.1C167.875 352.099 167.188 350.304 165.653 348.566C164.119 346.819 161.953 345.344 159.204 344.132C156.352 342.864 153.283 341.972 149.79 341.286C147.032 340.835 144.547 340.581 142.25 340.581C141.562 340.581 140.884 340.6 140.225 340.647C137.42 340.75 134.991 341.286 132.873 342.235C131.762 340.703 130.181 339.435 128.062 338.43C126.057 337.434 123.468 336.692 120.399 336.166C118.507 335.837 116.756 335.677 115.127 335.677C112.03 335.677 109.366 336.25 106.965 337.321C107.342 336.325 107.445 335.799 107.765 334.738C102.795 334.005 100.47 333.686 96.2331 333.056Z" fill="#DFBBFE"/>
<path fill-rule="evenodd" clip-rule="evenodd" d="M202.058 359.079C203.338 359.079 204.694 359.229 206.153 359.539C208.479 360.009 210.597 360.751 212.602 361.803C214.617 362.912 216.302 364.124 217.573 365.495C218.891 366.923 219.634 368.239 219.738 369.563C219.898 370.831 219.427 371.884 218.316 372.776C217.205 373.622 215.671 374.101 213.609 374.307C213.091 374.364 212.555 374.392 212.009 374.392C210.446 374.392 208.789 374.176 207.104 373.781C204.675 373.152 202.453 372.353 200.439 371.301C198.377 370.146 196.852 368.924 195.685 367.666C194.517 366.341 193.943 365.073 193.943 363.861C193.943 362.546 194.47 361.54 195.581 360.751C196.635 359.962 198.114 359.427 199.968 359.22C200.646 359.126 201.343 359.079 202.058 359.079ZM191.599 350.483C190.978 350.483 190.366 350.492 189.763 350.511C184.953 350.624 181.036 351.516 178.08 352.991C175.068 354.523 173.43 356.683 173.213 359.483C173.053 362.226 174.324 364.969 177.176 367.713C180.085 370.456 184.209 373.039 189.5 375.472C195.157 377.999 201.446 380.01 207.528 381.428C214.08 382.96 220.218 383.909 225.716 384.021C226.196 384.031 226.676 384.04 227.137 384.04C231.957 384.04 235.751 383.289 238.406 381.804C241.362 380.217 242.53 377.736 241.946 374.524C241.315 371.198 239.253 367.976 235.761 364.969C232.268 361.907 227.881 359.276 222.647 357.059C217.413 354.786 211.811 353.104 205.833 351.996C200.655 350.972 195.948 350.483 191.599 350.483Z" fill="#DFBBFE"/>
<path fill-rule="evenodd" clip-rule="evenodd" d="M245.279 360.751C247.444 370.719 249.449 380.799 251.464 390.879C259.287 392.721 267.063 394.571 274.99 396.366C273.192 389.611 272.297 386.229 270.443 379.531C270.019 378.112 270.123 377.051 270.866 376.318C271.554 375.576 272.712 375.097 274.246 374.89C274.698 374.824 275.169 374.796 275.668 374.796C276.882 374.796 278.247 374.975 279.744 375.313C282.493 375.895 284.818 376.788 286.673 378.056C288.575 379.324 289.789 380.743 290.326 382.33C292.434 388.709 294.6 395.098 296.614 401.533C304.277 403.327 311.94 405.065 319.613 406.916C316.704 399.316 313.739 391.715 310.726 384.228C309.672 381.541 307.77 379.061 305.181 376.844C302.479 374.627 299.363 372.673 295.767 371.142C292.114 369.61 288.207 368.398 284.084 367.609C281.043 367.036 278.351 366.754 275.988 366.754C272.024 366.754 269.002 367.553 266.847 369.141C266.056 367.346 265.632 366.444 264.841 364.65C258.336 363.391 251.784 362.02 245.279 360.751Z" fill="#DFBBFE"/>
<path fill-rule="evenodd" clip-rule="evenodd" d="M308.928 361.277C315.857 377.21 322.626 393.087 329.131 409.18C336.474 410.871 343.827 412.505 351.123 414.196C349.061 409.706 348.054 407.442 345.945 402.961C347.423 402.275 348.157 401.955 349.588 401.213C352.13 403.271 353.391 404.332 356.037 406.493C361.008 410.504 365.978 414.563 370.949 418.631C378.932 420.369 386.859 422.107 394.898 423.854C383.055 414.563 371.156 405.328 359.209 396.253C364.924 391.932 367.409 389.658 371.58 384.754C364.444 383.542 357.364 382.274 350.379 381.165C348.317 383.063 347.319 384.021 344.985 385.863C343.083 387.657 341.972 388.503 339.863 390.241C338.489 387.234 337.802 385.703 336.427 382.697C333.518 376.628 330.553 370.559 327.597 364.5C321.412 363.438 315.17 362.386 308.928 361.277Z" fill="#DFBBFE"/>
<path fill-rule="evenodd" clip-rule="evenodd" d="M385.927 386.38C382.736 386.38 380.354 386.887 378.932 387.977C376.654 389.658 376.551 392.561 378.829 396.629C380.778 400.058 383.743 403.064 387.763 405.648C391.783 408.184 397.017 410.289 403.146 411.98C406.902 412.985 408.7 413.455 412.24 414.403C413.981 414.883 415.356 415.465 416.523 416.151C417.634 416.837 418.528 417.673 419.112 418.781C419.856 420.049 419.856 420.895 419.056 421.318C418.698 421.515 418.142 421.618 417.389 421.618C416.514 421.618 415.384 421.468 413.981 421.158C411.185 420.632 408.907 419.843 407.165 418.781C405.414 417.673 403.889 416.357 402.618 414.619C396.273 413.558 392.997 412.928 386.068 411.66C393.261 422.323 406.375 427.753 418.528 430.233C422.143 430.994 425.09 431.37 427.415 431.37C430.08 431.37 431.934 430.872 433.073 429.914C435.135 428.072 434.335 424.54 431.115 419.317C426.144 411.35 417.634 406.014 408.54 404.013C405.207 403.168 403.569 402.745 400.133 401.852C398.175 401.326 396.537 400.791 395.426 400.105C394.259 399.532 393.421 398.733 392.781 397.738C392.093 396.629 392.253 395.943 393.101 395.624C393.524 395.464 394.108 395.389 394.824 395.389C395.548 395.389 396.405 395.464 397.384 395.624C399.766 396.047 401.668 396.573 403.089 397.362C404.464 398.16 405.838 399.316 406.949 400.847C412.24 401.533 414.725 401.852 419.272 402.322C416.043 398.001 412.343 394.572 407.956 391.988C403.616 389.452 398.655 387.864 392.517 386.915C390.051 386.558 387.848 386.38 385.927 386.38Z" fill="#DFBBFE"/>
<path fill-rule="evenodd" clip-rule="evenodd" d="M64.7333 376.158C64.1684 376.158 63.5942 376.224 63.0388 376.365C62.0314 376.628 61.0806 377.107 60.2898 377.737C59.4426 378.319 58.9153 379.005 58.5953 379.794C58.2752 380.583 58.1716 381.429 58.4352 382.171C58.6988 382.913 59.1789 383.542 59.9133 384.172C60.6569 384.707 61.6078 385.121 62.6151 385.393C63.2741 385.487 63.9048 385.562 64.5356 385.562C64.9498 385.562 65.364 385.525 65.7877 385.44C66.7856 385.233 67.7364 384.914 68.5366 384.285C69.3274 383.749 69.9111 383.016 70.2217 382.227C70.5418 381.429 70.5983 380.583 70.3347 379.747C70.0711 378.845 69.591 378.112 68.8473 377.53C68.113 376.947 67.2657 376.525 66.2113 376.318C65.7312 376.215 65.2322 376.158 64.7333 376.158Z" fill="#DFBBFE"/>
<path fill-rule="evenodd" clip-rule="evenodd" d="M80.8503 366.923C77.9978 373.781 75.3054 380.583 72.707 387.497C77.8377 389.188 80.6432 390.081 87.0919 391.988C88.6734 387.178 89.5207 384.754 91.1588 380.01C91.5354 379.108 92.0625 378.479 92.9569 378C93.7571 377.577 94.8115 377.314 96.0824 377.267C96.233 377.257 96.393 377.257 96.5531 377.257C97.6922 377.257 98.9067 377.417 100.206 377.793C101.317 378.056 102.315 378.526 103.162 379.061C103.953 379.691 104.536 380.273 104.96 380.959C105.384 381.692 105.44 382.33 105.224 382.96C103.529 388.24 102.738 390.983 101.157 396.413C107.502 398.367 113.847 400.321 120.239 402.275C121.51 396.995 122.141 394.355 123.468 389.188C123.732 388.343 124.259 387.601 125.266 387.131C126.264 386.652 127.479 386.389 129.013 386.389C130.501 386.389 132.139 386.549 133.88 387.028C135.998 387.657 137.844 388.446 139.171 389.508C140.489 390.616 141.073 391.716 140.856 392.937C139.745 398.79 139.171 401.692 138.004 407.649C145.62 409.922 153.283 412.186 160.899 414.46C161.793 407.649 162.217 404.22 163.008 397.521C163.271 395.52 162.48 393.463 160.682 391.565C158.837 389.611 156.295 387.864 153.076 386.229C149.79 384.707 146.147 383.383 142.071 382.274C137.9 381.222 134.247 380.583 130.971 380.48C130.369 380.452 129.776 380.442 129.201 380.442C126.688 380.442 124.494 380.724 122.517 381.325C121.143 379.587 119.288 378.056 116.859 376.741C114.421 375.36 111.465 374.308 107.972 373.359C104.725 372.476 101.844 372.062 99.2832 372.062C96.9391 372.062 94.8585 372.41 93.0134 373.096C93.277 371.931 93.3805 371.405 93.6441 370.296C88.0992 368.821 85.4538 368.135 80.8503 366.923Z" fill="#DFBBFE"/>
<path fill-rule="evenodd" clip-rule="evenodd" d="M201.691 406.155C203.743 406.155 205.927 406.521 208.319 407.179C211.021 407.921 213.553 408.917 215.935 410.185C218.26 411.454 220.218 412.872 221.64 414.403C223.127 415.935 223.861 417.41 223.918 418.678C223.974 420.05 223.287 421.111 221.96 421.844C220.642 422.586 218.74 422.896 216.302 422.896C213.873 422.896 211.284 422.483 208.479 421.741C205.673 420.895 203.141 419.89 200.816 418.575C198.49 417.203 196.692 415.888 195.421 414.403C194.15 412.929 193.52 411.613 193.52 410.289C193.52 409.02 194.207 408.025 195.525 407.282C196.899 406.55 198.65 406.174 200.919 406.174C201.173 406.164 201.437 406.155 201.691 406.155ZM185.527 396.047C181.375 396.047 177.911 396.507 175.171 397.418C171.632 398.63 169.674 400.641 169.41 403.59C169.146 406.493 170.568 409.443 173.853 412.609C177.13 415.672 181.837 418.781 187.909 421.741C194.518 424.953 201.663 427.546 208.639 429.651C215.351 431.548 222.647 433.239 229.839 433.982C232.042 434.198 234.095 434.31 235.987 434.31C239.658 434.31 242.727 433.888 245.175 432.976C248.818 431.708 250.456 429.388 250.033 426.062C249.666 422.746 247.444 419.26 243.481 415.888C239.517 412.506 234.386 409.396 228.305 406.55C221.96 403.59 214.984 401.27 208.319 399.532C202.19 397.888 195.478 396.573 189.076 396.15C187.843 396.084 186.657 396.047 185.527 396.047Z" fill="#DFBBFE"/>
<path fill-rule="evenodd" clip-rule="evenodd" d="M255.427 412.722C257.066 422.953 258.44 433.136 259.654 443.367C268.749 446.007 277.795 448.59 286.89 451.183C285.722 444.269 285.139 440.887 283.717 434.029C283.444 432.713 283.764 431.661 284.715 430.975C285.666 430.29 287.153 429.97 289.055 429.97C290.9 429.97 293.122 430.29 295.664 430.975C298.996 431.868 301.689 432.976 303.75 434.404C305.916 435.879 307.186 437.411 307.554 439.045C309.248 445.48 310.783 451.916 312.214 458.407C321.148 460.944 330.082 463.527 339.016 466.054C336.954 458.407 334.732 450.76 332.303 443.16C331.456 440.52 329.554 437.937 326.646 435.457C323.784 432.976 320.197 430.759 315.96 428.805C311.79 426.908 307.13 425.329 302.112 424.005C298.149 422.953 293.602 421.975 289.177 421.975C286.287 421.975 283.453 422.398 280.855 423.479C280.121 421.581 279.697 420.632 278.953 418.838C271.074 416.837 263.307 414.723 255.427 412.722Z" fill="#DFBBFE"/>
<path fill-rule="evenodd" clip-rule="evenodd" d="M333.678 420.792C339.704 436.725 345.145 452.705 349.956 469.061C358.579 471.494 367.146 473.918 375.656 476.294C374.122 471.757 373.378 469.54 371.74 464.946C373.698 464.523 374.705 464.317 376.607 463.79C379.356 466.111 380.674 467.266 383.376 469.596C388.554 474.021 393.684 478.455 398.758 482.889C408.06 485.473 417.257 488.056 426.511 490.593C414.301 480.409 401.931 470.329 389.448 460.408C395.482 457.928 401.668 454.875 407.165 451.286C398.655 449.229 390.192 447.115 381.578 444.851C378.669 446.382 377.191 447.219 374.065 448.59C371.269 450.074 369.782 450.76 366.769 452.179C365.715 449.126 365.188 447.594 364.02 444.588C361.591 438.416 359.05 432.291 356.404 426.278C348.845 424.484 341.238 422.586 333.678 420.792Z" fill="#DFBBFE"/>
<path fill-rule="evenodd" clip-rule="evenodd" d="M420.647 454.471C418.632 454.471 416.985 454.697 415.732 455.185C412.503 456.454 411.76 459.15 413.614 463.208C415.252 466.637 418.208 469.803 422.492 472.706C427.622 476.135 433.911 478.719 439.682 480.513C443.909 481.941 446.018 482.627 450.038 483.942C451.996 484.628 453.53 485.313 454.745 486.103C455.912 486.901 456.759 487.794 457.23 488.846C457.861 490.114 457.597 490.903 456.486 491.223C456.194 491.307 455.837 491.354 455.394 491.354C454.246 491.354 452.589 491.053 450.414 490.48C447.242 489.588 444.643 488.583 442.798 487.371C441 486.159 439.409 484.684 438.308 482.937C431.849 481.415 425.401 479.771 418.952 478.192C425.881 490.17 440.84 496.023 453.53 499.405C459.15 500.899 463.462 501.613 466.588 501.613C468.433 501.613 469.864 501.369 470.928 500.88C473.827 499.508 473.884 496.079 471.351 490.903C466.955 481.941 457.39 476.501 448.032 473.815C444.276 472.603 442.318 472.02 438.355 470.752C436.133 470.01 434.335 469.277 433.073 468.535C431.746 467.802 430.899 467.004 430.428 466.008C429.948 465.003 430.211 464.373 431.379 464.157C431.652 464.101 431.972 464.072 432.33 464.072C433.375 464.072 434.796 464.298 436.557 464.683C439.409 465.425 441.584 466.167 443.118 467.116C444.643 468.065 445.971 469.277 447.025 470.808C453.267 472.18 456.176 472.809 461.57 473.918C458.708 469.484 454.961 465.848 450.301 462.889C445.227 459.676 438.411 457.355 432.65 456.031C427.867 455.035 423.81 454.471 420.647 454.471Z" fill="#DFBBFE"/>
<path fill-rule="evenodd" clip-rule="evenodd" d="M51.6946 411.867C51.3275 411.867 50.9697 411.905 50.612 411.98C49.6047 412.186 48.7103 412.609 47.9666 413.192C47.2229 413.83 46.7522 414.563 46.4886 415.409C46.225 416.301 46.2721 417.147 46.6486 418.096C46.9593 419.044 47.4959 419.843 48.2867 420.576C49.134 421.318 50.0283 421.844 51.1392 422.323C52.0053 422.577 52.9184 422.774 53.7657 422.774C53.954 422.774 54.1329 422.765 54.3117 422.746C55.3191 422.633 56.2134 422.323 56.9006 421.741C57.5879 421.111 58.1151 420.369 58.3316 419.42C58.5952 418.518 58.5387 417.569 58.1715 416.574C57.8515 415.568 57.3243 414.667 56.5335 413.877C55.7898 413.088 54.839 412.506 53.7281 412.186C53.0503 411.989 52.363 411.867 51.6946 411.867Z" fill="#DFBBFE"/>
<path fill-rule="evenodd" clip-rule="evenodd" d="M67.5292 403.008C65.1474 410.505 63.0857 418.095 61.2876 425.752C66.2112 427.913 69.0637 429.078 75.3053 431.548C76.6797 426.222 77.367 423.582 78.7414 418.415C79.005 417.522 79.5793 416.837 80.4266 416.358C81.1421 415.935 82.1117 415.719 83.2602 415.719C83.3921 415.719 83.5238 415.719 83.6556 415.728C84.9736 415.831 86.4046 416.151 88.0426 416.677C89.257 417.147 90.3114 417.673 91.1587 418.359C92.1095 419.044 92.7968 419.683 93.2204 420.529C93.6441 421.318 93.8041 422.06 93.597 422.746C92.0624 428.495 91.3188 431.398 89.8972 437.354C96.553 439.891 103.265 442.371 109.987 444.851C111.249 439.149 111.936 436.358 113.207 430.759C113.423 429.81 114.054 429.078 115.108 428.655C115.993 428.26 117.085 428.044 118.375 428.044C118.639 428.044 118.902 428.054 119.185 428.072C120.87 428.232 122.621 428.655 124.522 429.228C126.951 430.026 128.909 431.022 130.34 432.291C131.818 433.502 132.506 434.771 132.242 436.086C131.028 442.258 130.34 445.377 129.069 451.756C137.26 454.715 145.563 457.618 153.763 460.465C155.024 453.24 155.561 449.699 156.719 442.578C157.039 440.417 156.192 438.303 154.233 436.086C152.275 433.878 149.423 431.764 145.827 429.81C142.23 427.913 138.107 426.222 133.56 424.747C129.013 423.272 124.946 422.323 121.35 421.9C120.004 421.759 118.714 421.684 117.499 421.684C115.513 421.684 113.724 421.872 112.152 422.267C110.674 420.266 108.613 418.359 105.911 416.78C103.218 415.146 99.9421 413.671 96.1293 412.402C91.8553 410.956 88.2403 410.26 85.1524 410.26C83.4015 410.26 81.8104 410.486 80.3795 410.927C80.5866 409.659 80.6902 409.02 80.9067 407.809C74.9852 405.751 72.2833 404.755 67.5292 403.008Z" fill="#DFBBFE"/>
<path fill-rule="evenodd" clip-rule="evenodd" d="M198.17 454.481C198.509 454.481 198.867 454.49 199.224 454.499C201.813 454.715 204.572 455.242 207.584 456.19C210.597 457.139 213.346 458.351 215.991 459.882C218.523 461.414 220.642 463.048 222.12 464.683C223.551 466.374 224.285 467.905 224.238 469.277C224.181 470.695 223.287 471.701 221.696 472.34C220.425 472.866 218.872 473.147 216.951 473.147C216.396 473.147 215.812 473.119 215.191 473.072C212.395 472.866 209.533 472.283 206.577 471.231C203.461 470.226 200.655 468.911 198.17 467.379C195.628 465.895 193.727 464.317 192.409 462.682C191.034 461.094 190.45 459.619 190.554 458.248C190.714 456.98 191.505 455.984 193.039 455.298C194.404 454.753 196.108 454.481 198.17 454.481ZM178.174 442.615C175.247 442.615 172.686 442.878 170.464 443.423C166.444 444.475 164.232 446.486 163.752 449.539C163.272 452.555 164.759 455.768 168.242 459.356C171.735 462.889 176.809 466.581 183.315 469.963C190.507 473.711 198.114 476.924 205.833 479.461C213.449 482.1 221.272 484.101 229.312 485.417C232.908 486.027 236.194 486.319 239.14 486.319C242.087 486.319 244.695 486.027 246.916 485.473C251.304 484.421 253.469 482.147 253.469 478.775C253.469 475.289 251.304 471.701 247.18 467.849C242.473 463.574 236.288 459.723 230.583 457.036C223.174 453.663 215.718 450.544 208.111 448.224C201.183 446.007 193.727 444.109 186.327 443.16C183.343 442.803 180.622 442.615 178.174 442.615Z" fill="#DFBBFE"/>
<path fill-rule="evenodd" clip-rule="evenodd" d="M261.556 465.792C262.196 476.238 262.356 486.788 262.093 497.235C272.081 500.504 282.126 503.886 291.964 507.156C291.907 500.194 291.804 496.709 291.324 489.748C291.277 488.32 291.804 487.315 293.075 486.685C294.063 486.234 295.362 485.999 296.944 485.999C297.377 485.999 297.829 486.018 298.309 486.056C300.521 486.215 303.063 486.788 305.972 487.634C309.672 488.799 312.628 490.114 314.85 491.749C317.071 493.336 318.239 494.971 318.446 496.606C319.19 503.144 319.717 509.796 320.037 516.334C329.865 519.556 339.703 522.769 349.588 525.992C348.901 518.232 347.95 510.585 346.839 502.881C346.415 500.194 344.721 497.451 341.765 494.755C338.799 492.068 335.052 489.532 330.449 487.268C325.798 484.947 320.46 482.833 314.85 481.199C309.135 479.564 302.978 477.845 296.85 477.845C294.487 477.845 292.124 478.099 289.789 478.719C289.158 476.821 288.895 475.816 288.311 473.974C279.377 471.278 270.5 468.535 261.556 465.792Z" fill="#DFBBFE"/>
<path fill-rule="evenodd" clip-rule="evenodd" d="M42.5345 452.602C42.2804 452.602 42.0262 452.621 41.7814 452.658C40.774 452.762 39.8233 453.184 39.1925 453.973C38.5053 454.763 38.0251 455.721 37.7615 456.876C37.498 458.088 37.5544 459.253 37.818 460.568C38.1852 461.837 38.7124 462.945 39.4561 464.054C40.1998 465.106 41.0942 466.008 42.1486 466.534C43.0617 467.06 44.0031 467.276 44.9257 467.276C45.0199 467.276 45.1234 467.276 45.2175 467.267C46.2249 467.116 47.1192 466.741 47.8629 466.008C48.5972 465.162 49.0209 464.213 49.3409 463.048C49.6046 461.837 49.6046 460.568 49.2374 459.197C48.9738 457.882 48.4466 456.67 47.6464 455.561C46.9121 454.499 45.9613 453.71 44.8975 453.184C44.1444 452.79 43.3253 452.602 42.5345 452.602Z" fill="#DFBBFE"/>
<path fill-rule="evenodd" clip-rule="evenodd" d="M57.6443 443.104C56.0533 452.658 54.1046 462.156 52.1465 471.597C57.3807 474.5 60.3367 476.032 66.842 479.404C68.2164 472.123 68.7436 468.751 69.7509 462.203C69.8545 460.991 70.3346 460.145 71.1724 459.619C71.9068 459.14 72.8105 458.877 73.9308 458.877C74.0344 458.877 74.1379 458.877 74.2415 458.887C75.5124 458.934 76.9433 459.356 78.5249 459.986C79.8523 460.568 80.9067 461.207 81.8575 462.043C82.8084 462.842 83.552 463.791 84.0793 464.683C84.55 465.688 84.8135 466.581 84.6629 467.426C83.9192 473.814 82.9684 480.146 81.914 486.422C88.7863 489.588 95.6022 492.538 102.531 495.497C103.745 487.897 104.216 484.308 104.96 477.403C105.12 476.191 105.647 475.233 106.654 474.707C107.473 474.19 108.462 473.993 109.714 473.993C110.006 473.993 110.307 474.002 110.618 474.021C112.312 474.181 114.11 474.604 116.059 475.346C118.544 476.398 120.606 477.666 122.244 479.141C123.835 480.616 124.579 482.147 124.466 483.679C123.835 490.33 123.044 496.972 122.037 503.52C130.444 506.949 138.747 510.321 147.154 513.591C148.152 506.207 149.159 498.926 149.743 491.486C149.903 488.958 148.839 486.422 146.617 483.838C144.405 481.199 141.233 478.775 137.373 476.454C133.456 474.181 129.069 472.067 124.315 470.282C119.495 468.488 115.372 467.267 111.729 466.693C110.194 466.459 108.763 466.355 107.436 466.355C105.685 466.355 104.122 466.543 102.738 466.9C100.997 464.523 98.6712 462.316 95.8187 460.362C93.0133 458.351 89.5771 456.613 85.7173 454.979C81.1797 453.043 77.5553 452.123 74.5615 452.123C73.0553 452.123 71.7091 452.357 70.4852 452.818C70.4852 451.333 70.5417 450.601 70.5417 449.229C64.7802 446.589 62.1349 445.377 57.6443 443.104Z" fill="#DFBBFE"/>
</svg>
