<svg width="140" height="24" viewBox="0 0 140 24" fill="none" xmlns="http://www.w3.org/2000/svg">
<path d="M3.8988 23.7621C6.06215 23.7621 7.82136 22.0495 7.82136 19.9564C7.82136 17.8632 6.06215 16.1268 3.8988 16.1268C1.73544 16.1268 0 17.887 0 19.9564C0 22.0257 1.68789 23.7621 3.8988 23.7621Z" fill="#EAE8E4"/>
<path d="M17.6635 23.3102V13.9862C17.6635 11.9644 19.1374 10.6086 21.1581 10.6086C23.1789 10.6086 23.8207 11.7503 23.8207 13.225V23.3102H31.1429V13.9862C31.1429 11.9881 32.6643 10.6086 34.5662 10.6086C36.4681 10.6086 37.3239 11.5362 37.3239 13.225V23.3102H44.646V12.2022C44.646 8.11103 41.3891 5.92273 37.0386 5.92273C32.6881 5.92273 31.7134 6.89795 30.1206 8.80083C28.8606 6.89795 26.7924 5.92273 23.7494 5.92273C20.7065 5.92273 18.9235 6.80281 17.4258 8.56297L17.2594 6.39845H10.3889V23.2865H17.711H17.6635V23.3102Z" fill="#EAE8E4"/>
<path d="M58.6247 23.9286C64.8771 23.9286 70.4162 20.6937 70.4162 14.9613C70.4162 9.22892 65.0672 5.85132 58.6247 5.85132C52.1822 5.85132 46.8333 9.01485 46.8333 14.9613C46.8333 20.9078 52.3248 23.9286 58.6247 23.9286ZM58.601 19.2666C56.1523 19.2666 54.2029 17.2923 54.2029 14.9138C54.2029 12.5352 56.1285 10.5609 58.601 10.5609C61.0734 10.5609 63.0465 12.5589 63.0465 14.9138C63.0465 17.2686 61.0496 19.2666 58.601 19.2666Z" fill="#EAE8E4"/>
<path d="M79.9253 23.3103V14.3192C79.9253 12.0595 81.5657 10.7751 83.7528 10.7751C85.9399 10.7751 86.7482 11.7979 86.7482 13.4629V23.3103H94.0703V12.1071C94.0703 8.08727 90.6708 5.94653 86.3203 5.94653C81.9698 5.94653 81.2328 6.89797 79.7351 8.72949L79.4736 6.39846H72.627V23.2865H79.9491L79.9253 23.3103Z" fill="#EAE8E4"/>
<path d="M119.199 6.4222H110.379L107.051 9.3003L104.031 12.107L104.103 8.53915V0H96.7805V23.3102H104.103V18.0297L105.862 16.7215L107.431 18.7433L111.021 23.2864H119.936L110.83 13.2012L119.199 6.39841V6.4222Z" fill="#EAE8E4"/>
<path d="M129.373 23.9999C136.125 23.9999 140 22.1684 140 17.8394C140 13.5104 137.741 12.9871 132.297 12.5351L128.47 12.2021C126.734 12.0356 125.974 11.6551 125.974 10.8225C125.974 9.99004 127.139 9.49053 129.04 9.49053C130.942 9.49053 132.297 10.0138 132.559 11.2031L139.334 11.0366C138.74 7.63523 135.412 5.80371 129.302 5.80371C123.192 5.80371 119.484 8.06338 119.484 11.5361C119.484 15.0089 121.742 16.2457 126.972 16.7452L130.895 17.102C132.392 17.221 133.224 17.6253 133.224 18.553C133.224 19.4806 132.131 20.1466 129.706 20.1466C127.281 20.1466 126.211 19.4331 125.926 18.0773L118.984 18.2438C119.46 21.7879 122.479 23.9999 129.397 23.9999H129.373Z" fill="#EAE8E4"/>
</svg>
