<svg width="72" height="100" viewBox="0 0 72 100" fill="none" xmlns="http://www.w3.org/2000/svg">
<g clip-path="url(#clip0_7_287)">
<path d="M53.8836 44.9193C43.9588 48.2333 34.0827 46.9353 27.1951 45.2231C22.1979 43.9735 17.1521 42.4615 12.6484 39.8794C6.27516 36.2478 1.04865 30.0825 1 22.4397C1.08729 16.9338 3.34867 11.6823 7.29683 7.81693C11.2558 3.98749 16.2921 1.44267 21.7392 0.519341C30.6145 -1.10311 39.9972 1.16832 47.5868 6.04259C55.1763 10.9169 61.0144 18.1661 64.8162 26.2991C69.4728 36.2409 71.398 47.4876 70.9323 58.403C70.3624 72.0523 68.3607 89.6576 58.3595 99.9999" stroke="#EAE8E4" stroke-linecap="round" stroke-linejoin="round"/>
<path d="M59.8037 93.4894C60.1651 95.8299 59.06 97.7423 58.365 100C60.2012 99.0834 61.9812 98.0599 63.6957 96.9346" stroke="#EAE8E4" stroke-linecap="round" stroke-linejoin="round"/>
<path d="M18.3397 26.7032C18.2394 26.581 18.12 26.4748 17.9858 26.3882C17.8512 26.2934 17.7092 26.2087 17.5611 26.1349L17.1152 25.9021C16.9689 25.8275 16.8313 25.738 16.7047 25.6351C16.4023 25.5638 16.1082 25.4628 15.827 25.3338C15.5509 25.2037 15.2678 25.0873 14.9776 24.9777C14.9776 24.9777 14.9776 25.0188 14.9068 25.0188H14.7298C14.6647 24.9474 14.5819 24.8933 14.4892 24.8613C14.3937 24.8143 14.2943 24.7754 14.1919 24.7449L13.8804 24.6491C13.7849 24.6183 13.6943 24.5745 13.6115 24.519C13.5417 24.5126 13.4729 24.4988 13.4062 24.4779C13.3366 24.4602 13.2635 24.4602 13.1939 24.4779L12.5427 24.0945C12.3301 23.9631 12.1246 23.8214 11.9269 23.67C11.7257 23.5245 11.5385 23.3618 11.3677 23.1838C11.191 23.0031 11.0366 22.8032 10.9076 22.5882C10.9044 22.5001 10.8901 22.4127 10.8651 22.328C10.855 22.2369 10.855 22.1451 10.8651 22.0541V21.835C10.9156 21.8037 10.955 21.7583 10.9784 21.7049C11.005 21.6514 11.0286 21.5965 11.0491 21.5406C11.0491 21.4789 11.0845 21.4242 11.0987 21.3694C11.1115 21.3117 11.1382 21.2578 11.1766 21.2119C11.2073 21.1633 11.255 21.1269 11.311 21.1092C11.3649 21.0846 11.4131 21.0497 11.4526 21.0065C11.4939 20.9652 11.5211 20.9126 11.5305 20.8559C11.5412 20.8273 11.5592 20.8017 11.5826 20.7813C11.6061 20.761 11.6344 20.7467 11.665 20.7395C11.7734 20.7069 11.8761 20.6584 11.9693 20.5957C12.0572 20.526 12.14 20.4505 12.2171 20.3697C12.3332 20.3283 12.4447 20.2756 12.5497 20.2123L12.847 20.0137L13.1655 19.822C13.2805 19.7604 13.4047 19.7165 13.5336 19.6919C13.5745 19.6441 13.6285 19.6085 13.6893 19.5892C13.7526 19.5748 13.8081 19.5382 13.8451 19.4865C13.9457 19.4817 14.0455 19.4656 14.1423 19.4385L14.4538 19.3564L14.7511 19.2811C14.8535 19.2599 14.9578 19.2484 15.0625 19.2468H15.2395C15.2718 19.3186 15.3295 19.3769 15.4023 19.4112C15.479 19.4406 15.5604 19.4568 15.6429 19.4591C15.7226 19.4582 15.8016 19.4443 15.8765 19.418C15.9511 19.3885 16.0168 19.3415 16.0676 19.2811C16.2067 19.2879 16.3461 19.2879 16.4852 19.2811H17.186C17.2843 19.2923 17.3788 19.3251 17.462 19.3769C17.4596 19.3569 17.4619 19.3365 17.469 19.3175C17.4761 19.2985 17.4876 19.2813 17.5027 19.2673C17.5178 19.2534 17.5361 19.243 17.5561 19.2371C17.576 19.2312 17.5972 19.2298 17.6178 19.2331H17.6673V19.1715C17.6705 19.1305 17.6705 19.0893 17.6673 19.0483C17.6602 19.0075 17.6374 18.9708 17.6036 18.9456C17.6802 18.9159 17.7537 18.8792 17.823 18.836C17.8888 18.7856 17.936 18.7159 17.9575 18.6374C17.9422 18.6208 17.9305 18.6012 17.9232 18.5801C17.9159 18.5589 17.9131 18.5365 17.9151 18.5142V18.4868L17.6956 18.391C17.6687 18.3718 17.6465 18.3472 17.6306 18.3188C17.6147 18.2904 17.6055 18.2589 17.6036 18.2266C17.4149 18.1992 17.2237 18.165 17.0303 18.1239C16.8413 18.0884 16.6494 18.0701 16.4569 18.0692C16.4124 18.0626 16.367 18.0626 16.3224 18.0692C16.2779 18.0757 16.2325 18.0757 16.188 18.0692C16.1814 18.0701 16.1748 18.0698 16.1684 18.0683C16.162 18.0667 16.156 18.0639 16.1507 18.0601C16.1454 18.0563 16.141 18.0515 16.1377 18.046C16.1344 18.0405 16.1322 18.0344 16.1313 18.0281C16.1313 18.0281 16.1313 17.9938 16.0606 17.9938C16.0507 18.0093 16.0372 18.0223 16.0213 18.0318C16.0053 18.0413 15.9872 18.0471 15.9685 18.0486H15.6925C15.6435 18.0384 15.5928 18.0384 15.5438 18.0486C15.4171 18.0673 15.2934 18.1019 15.1758 18.1513C15.0617 18.1984 14.9387 18.2217 14.8148 18.2198H14.744L14.4396 18.343C14.3358 18.3701 14.2287 18.3839 14.1211 18.3841H14.0503C14.0449 18.4036 14.0351 18.4216 14.0217 18.437C14.0082 18.4524 13.9914 18.4647 13.9725 18.4731L13.8451 18.5211C13.8052 18.5154 13.7646 18.5154 13.7247 18.5211C13.7035 18.5258 13.6836 18.535 13.6665 18.548C13.6494 18.5611 13.6354 18.5776 13.6256 18.5964C13.6005 18.5838 13.5726 18.5772 13.5442 18.5772C13.5159 18.5772 13.488 18.5838 13.4628 18.5964C13.4173 18.6204 13.366 18.6322 13.3142 18.6306H13.2576C13.2254 18.6928 13.1732 18.7433 13.1089 18.7744L12.2595 19.1715C11.9766 19.3049 11.7125 19.4729 11.4738 19.6713C11.432 19.6829 11.3951 19.7071 11.3683 19.7403C11.3416 19.7735 11.3265 19.8141 11.3252 19.8562C11.2875 19.8778 11.2539 19.9056 11.2261 19.9384L11.1412 20.0137C11.0996 20.0409 11.0495 20.053 10.9996 20.0479C10.9989 20.0988 10.9787 20.1476 10.943 20.1849C10.9169 20.2242 10.9 20.2686 10.8934 20.315C10.5464 20.4577 10.263 20.7148 10.0936 21.0407C9.91749 21.3609 9.82743 21.7188 9.83169 22.0815C9.83301 22.3604 9.87836 22.6375 9.96617 22.9031C10.009 22.9376 10.045 22.9794 10.0723 23.0264C10.1065 23.0721 10.124 23.1275 10.1219 23.1838C10.1263 23.2134 10.1263 23.2433 10.1219 23.2729C10.2525 23.3763 10.3734 23.4909 10.4829 23.6152C10.5917 23.7457 10.68 23.8911 10.7448 24.0466L11.0138 24.1767C11.0571 24.2016 11.0934 24.2365 11.1193 24.2783C11.1453 24.3202 11.1601 24.3676 11.1624 24.4163H11.2686C11.3066 24.4144 11.3445 24.4215 11.3791 24.437C11.4136 24.4525 11.4437 24.476 11.4668 24.5053L11.6508 24.6696C11.7505 24.6883 11.8462 24.723 11.9339 24.7723C12.0166 24.8139 12.0969 24.8596 12.1746 24.9093C12.2583 24.9572 12.3459 24.9984 12.4365 25.0325C12.5378 25.073 12.6455 25.0961 12.755 25.101C12.7564 25.1226 12.7637 25.1435 12.7761 25.1615C12.7886 25.1796 12.8057 25.1941 12.8258 25.2037C12.8446 25.2082 12.8619 25.2175 12.8756 25.2308C12.8893 25.2441 12.899 25.2608 12.9036 25.279H12.939C12.9529 25.2799 12.9668 25.2773 12.9793 25.2712C12.9917 25.2652 13.0023 25.2561 13.0098 25.2448C13.0284 25.2401 13.0479 25.2401 13.0664 25.2448C13.0945 25.2855 13.1306 25.3204 13.1726 25.3475L13.3283 25.4023L13.4841 25.4707C13.5293 25.4939 13.5663 25.5297 13.5902 25.5734C13.6915 25.5726 13.7921 25.5888 13.8875 25.6214C13.9842 25.6438 14.0788 25.6735 14.1707 25.7104L14.4396 25.8131C14.5354 25.8466 14.6354 25.8673 14.7369 25.8747C14.8682 25.9972 15.0286 26.0866 15.2041 26.1349C15.3952 26.176 15.5722 26.217 15.7491 26.2444C15.7575 26.2762 15.7725 26.3059 15.7931 26.3318C15.8138 26.3577 15.8398 26.3792 15.8694 26.3951L16.0535 26.4704L16.2375 26.5525C16.2663 26.5636 16.2925 26.5802 16.3144 26.6014C16.3363 26.6226 16.3535 26.6479 16.3649 26.6758C16.5605 26.705 16.7441 26.7855 16.8958 26.9086C17.0449 27.036 17.1823 27.1757 17.3063 27.3263V27.3673C17.3096 27.3808 17.3096 27.3949 17.3063 27.4084C17.3088 27.4418 17.3045 27.4753 17.2936 27.507C17.2826 27.5387 17.2653 27.5681 17.2426 27.5933C17.1977 27.6348 17.17 27.6908 17.1648 27.7508C16.8604 27.9219 16.5702 28.0657 16.3012 28.1958C16.0033 28.3245 15.685 28.4033 15.3598 28.4286C15.2792 28.4818 15.1909 28.5233 15.0979 28.5519L14.7935 28.6272C14.6908 28.6476 14.5867 28.6613 14.4821 28.6683H13.9512C13.8734 28.6605 13.7971 28.6421 13.7247 28.6135V28.4355C13.7183 28.3651 13.7017 28.2959 13.6752 28.2301C13.658 28.1637 13.6239 28.1025 13.5761 28.052C13.5607 28.0276 13.5388 28.0077 13.5126 27.9944C13.4864 27.9812 13.457 27.975 13.4274 27.9767C13.3668 27.9637 13.304 27.9637 13.2434 27.9767C13.1881 28.0024 13.1278 28.0164 13.0664 28.0178C12.9821 28.0943 12.9126 28.1847 12.8612 28.2848C12.8113 28.3902 12.7847 28.5045 12.7833 28.6203C12.7837 28.7762 12.8251 28.9293 12.9036 29.0654C12.9768 29.2023 13.0779 29.3235 13.2009 29.4214L13.7814 29.4831C13.9735 29.5103 14.1675 29.5241 14.3618 29.5241C14.4654 29.5315 14.5695 29.5315 14.6732 29.5241L14.9847 29.4694H15.0484C15.1258 29.4584 15.2045 29.4584 15.2819 29.4694C15.3061 29.4457 15.335 29.4271 15.3669 29.4146H15.6005C15.6383 29.4103 15.6733 29.3933 15.6996 29.3667H15.7633C15.9736 29.3676 16.1816 29.3231 16.372 29.2366L16.9524 28.9832L17.1294 28.9148C17.1868 28.9069 17.2421 28.8883 17.2922 28.86C17.3847 28.8181 17.4668 28.7574 17.5328 28.682C17.6251 28.6066 17.7246 28.5401 17.8301 28.4834C17.8368 28.3988 17.8688 28.3179 17.9221 28.2506L18.0779 28.0863C18.1357 28.0325 18.1901 27.9754 18.2407 27.9151C18.2973 27.849 18.3318 27.7678 18.3397 27.6823C18.3552 27.6896 18.3721 27.6933 18.3893 27.6933C18.4065 27.6933 18.4234 27.6896 18.4388 27.6823C18.4569 27.6554 18.4847 27.6359 18.5167 27.6275V27.4837C18.5192 27.366 18.495 27.2491 18.4459 27.1414C18.3934 26.9997 18.3578 26.8527 18.3397 26.7032ZM25.8993 26.1006C25.7968 26.1342 25.689 26.1504 25.5808 26.1486C25.4928 26.1521 25.4059 26.1281 25.3331 26.0801C25.2439 26.1193 25.1605 26.17 25.0853 26.2307C25.0176 26.2952 24.9312 26.3382 24.8376 26.354H24.3987L23.7617 26.4225C23.5505 26.4498 23.3377 26.4635 23.1246 26.4635C22.9495 26.4624 22.7746 26.4509 22.6009 26.4293C22.4306 26.4059 22.2625 26.3692 22.0983 26.3197C22.0351 26.3306 21.9704 26.3306 21.9072 26.3197C21.8266 26.3204 21.7469 26.3041 21.6736 26.2718L21.44 26.1691L21.1852 26.0664C21.0991 26.0355 21.0081 26.0193 20.9162 26.0185C20.8877 25.9529 20.8412 25.896 20.7817 25.8542C20.725 25.807 20.6633 25.7657 20.5977 25.7309L20.4066 25.6077C20.3446 25.5647 20.2938 25.5084 20.258 25.4433C20.254 25.4276 20.254 25.4112 20.258 25.3954V25.3475C20.1598 25.3095 20.081 25.2357 20.0385 25.1421C19.9995 25.0445 19.9471 24.9523 19.8828 24.8682C19.8747 24.8344 19.8747 24.7993 19.8828 24.7655V24.6422C19.876 24.5305 19.876 24.4185 19.8828 24.3067C19.9016 24.1957 19.9134 24.0837 19.9182 23.9712C19.9569 23.9209 19.9924 23.8683 20.0244 23.8138C20.0594 23.7593 20.0834 23.6989 20.0952 23.6357C20.1508 23.6169 20.2016 23.5865 20.2438 23.5467L20.3571 23.4166L20.4703 23.2797C20.5098 23.2355 20.555 23.1964 20.6048 23.1633L20.8525 23.0264L21.2277 22.821L21.6028 22.6429C21.6756 22.6036 21.7545 22.5759 21.8364 22.5608H22.0488C22.1723 22.4471 22.332 22.3772 22.5018 22.3622C22.6762 22.3429 22.849 22.3108 23.0185 22.2663C23.0804 22.2992 23.1473 22.3223 23.2167 22.3348C23.2892 22.349 23.3603 22.3697 23.429 22.3964C23.4133 22.5386 23.3676 22.6761 23.2945 22.8004L23.4715 22.8552L23.613 22.9305C23.6676 22.9597 23.7244 22.9849 23.7829 23.0058C23.8579 23.0176 23.9344 23.0176 24.0094 23.0058C24.2253 23.0149 24.437 22.9466 24.604 22.8141C24.7665 22.6718 24.8697 22.477 24.8942 22.2663C24.8586 22.2214 24.8322 22.1703 24.8164 22.1157L24.7739 22.0678C24.7545 22.0136 24.7308 21.961 24.7031 21.9103C24.6759 21.8592 24.64 21.8129 24.5969 21.7734C24.5188 21.7239 24.4283 21.6955 24.335 21.6912C24.2389 21.687 24.1479 21.6479 24.0802 21.5816H23.9457C23.8283 21.5795 23.7126 21.5539 23.606 21.5063C23.5058 21.454 23.3942 21.4258 23.2804 21.4242C23.2177 21.4221 23.1559 21.4389 23.1034 21.4721H22.9618C22.8467 21.4703 22.7319 21.4864 22.6221 21.52C22.5113 21.5493 22.3972 21.5654 22.2823 21.568H22.2045C22.1536 21.6108 22.093 21.6413 22.0275 21.657L21.8435 21.698H21.6524L21.4683 21.7323C21.4307 21.7481 21.3969 21.7714 21.3692 21.8008C21.3376 21.8501 21.2905 21.8885 21.2348 21.9103L21.0224 21.9925L20.8242 22.0746C20.7776 22.0996 20.7275 22.118 20.6756 22.1294C20.6287 22.1393 20.5834 22.1554 20.5411 22.1773C20.4859 22.2116 20.4358 22.253 20.3924 22.3006C20.3554 22.3452 20.3023 22.3745 20.2438 22.3827H20.1235C20.1188 22.3936 20.1164 22.4052 20.1164 22.417C20.1164 22.4287 20.1188 22.4404 20.1235 22.4512C20.1227 22.4634 20.1191 22.4752 20.113 22.4859C20.1068 22.4965 20.0983 22.5057 20.0881 22.5128C20.0725 22.5196 20.0556 22.5232 20.0385 22.5232C20.0214 22.5232 20.0046 22.5196 19.989 22.5128C19.9636 22.5054 19.9365 22.5054 19.9111 22.5128C19.8751 22.5341 19.8439 22.562 19.8191 22.595L19.7625 22.6772L19.5572 22.8278C19.4878 22.868 19.4256 22.9189 19.3732 22.9784L19.3095 23.0332L19.2387 23.0811C19.1711 23.167 19.1119 23.2587 19.0617 23.355C19.0031 23.4732 18.9511 23.5943 18.906 23.7179C18.8679 23.8416 18.8371 23.9673 18.814 24.0945C18.7881 24.1977 18.7739 24.3033 18.7715 24.4094C18.7736 24.5318 18.7902 24.6536 18.8211 24.7723C18.8466 24.8929 18.8797 25.0118 18.9202 25.1284L19.0476 25.4776C19.0915 25.5927 19.1224 25.7121 19.1396 25.8336C19.234 25.8877 19.3159 25.9599 19.3803 26.0459C19.4547 26.1256 19.5233 26.2102 19.5855 26.2992C19.666 26.3282 19.7421 26.3673 19.812 26.4156L19.9961 26.5457L20.1943 26.6484C20.2787 26.6778 20.3667 26.6962 20.4561 26.7032C20.4811 26.7527 20.5239 26.7916 20.5765 26.8127L20.7393 26.8812L20.9233 26.936L21.079 27.0113C21.2605 27.0531 21.4451 27.0805 21.6311 27.0935H23.3724C23.6738 27.0962 23.9749 27.071 24.2713 27.0181C24.5686 26.9702 24.8659 26.9291 25.1703 26.8949C25.1992 26.8577 25.2385 26.8292 25.2835 26.8127C25.3288 26.7949 25.3765 26.7834 25.4251 26.7785H25.5666C25.6141 26.7694 25.6581 26.7481 25.6941 26.7169C25.7073 26.712 25.719 26.7036 25.7277 26.6928C25.7365 26.6819 25.742 26.6689 25.7436 26.6553C25.7537 26.6191 25.7732 26.5861 25.8002 26.5594C25.8381 26.5221 25.881 26.4899 25.9276 26.4635C25.9786 26.4428 26.0263 26.4151 26.0692 26.3814C26.1178 26.3549 26.1609 26.3201 26.1966 26.2787C26.2338 26.2341 26.2538 26.1785 26.2532 26.1212H26.1895C26.0943 26.1008 25.9966 26.0938 25.8993 26.1006ZM42.6606 21.8213L42.4907 21.6159C42.4336 21.5431 42.3882 21.4623 42.3563 21.3762C42.1927 21.312 42.049 21.2082 41.9386 21.075H41.7617C41.6455 21.0751 41.5302 21.0542 41.4219 21.0133C41.3138 20.9719 41.1985 20.951 41.0822 20.9517H40.8698L40.5584 21.027C40.4562 21.0516 40.3584 21.0908 40.2682 21.1434C40.0836 21.2282 39.9061 21.3266 39.7373 21.4379C39.5678 21.5535 39.3785 21.6392 39.1781 21.6912C39.1509 21.7423 39.115 21.7886 39.072 21.8281C39.0253 21.863 38.9908 21.9108 38.9729 21.9651C38.7308 22.0879 38.509 22.2448 38.3146 22.4307C38.1276 22.6227 37.9159 22.7907 37.6846 22.9305C37.695 22.964 37.695 22.9997 37.6846 23.0332C37.6846 23.0332 37.6421 23.0674 37.5855 23.0674C37.5948 23.0843 37.5997 23.1031 37.5997 23.1222C37.5997 23.1413 37.5948 23.1601 37.5855 23.177C37.5816 23.2088 37.5816 23.241 37.5855 23.2729C37.3445 23.5104 37.1243 23.7669 36.9272 24.0397C36.7321 24.312 36.5773 24.6093 36.4672 24.923C36.4757 25.0179 36.4636 25.1135 36.4318 25.2037C36.3975 25.285 36.3737 25.3701 36.361 25.457L36.5379 25.9911H36.1345C35.7947 25.9911 35.4267 25.9911 35.1011 26.039H34.825C34.7367 26.0455 34.649 26.0592 34.5631 26.0801H34.3649C34.3267 26.0771 34.2912 26.0599 34.2658 26.0322C34.2364 26.0204 34.2033 26.0204 34.1738 26.0322C34.1295 26.0686 34.0756 26.0923 34.0181 26.1006L33.8411 26.1486C33.6146 26.1486 33.3881 26.1486 33.1333 26.1965L32.4255 26.2787L31.7176 26.354C31.4821 26.3722 31.2454 26.3722 31.0098 26.354H30.7408C30.7485 26.3335 30.7492 26.3111 30.7428 26.2902C30.7365 26.2693 30.7234 26.2508 30.7055 26.2376C30.6783 26.2032 30.6414 26.177 30.5993 26.1623C30.5945 26.1397 30.5945 26.1164 30.5993 26.0938C30.5888 26.0464 30.5888 25.9974 30.5993 25.95C30.6232 25.9 30.6398 25.847 30.6488 25.7925C31.0664 25.4776 31.4628 25.1558 31.8521 24.8203L33.02 23.8001L33.2112 23.4509C33.2773 23.3333 33.3363 23.2121 33.3881 23.088C33.4492 22.9638 33.5012 22.8357 33.5438 22.7046C33.5857 22.5782 33.6095 22.4469 33.6146 22.3143V22.1636C33.465 21.9622 33.2916 21.7784 33.0979 21.6159C33.0164 21.6338 32.9317 21.6338 32.8502 21.6159L32.6449 21.52C32.5081 21.5269 32.3711 21.5269 32.2344 21.52C32.101 21.4984 31.9661 21.487 31.8309 21.4858C31.634 21.4719 31.4361 21.4857 31.2434 21.5269C31.0526 21.5654 30.8579 21.5838 30.663 21.5816C30.5431 21.568 30.4219 21.568 30.302 21.5816L29.9481 21.6433L29.6012 21.7117C29.4837 21.7256 29.3649 21.7256 29.2473 21.7117C29.1636 21.7596 29.0761 21.8008 28.9854 21.835C28.8966 21.8516 28.8053 21.8516 28.7165 21.835H28.5678C28.519 21.8989 28.4491 21.9448 28.3696 21.9651C28.2912 21.986 28.2103 21.9975 28.129 21.9993C28.0525 21.9952 27.9766 21.9837 27.9025 21.9651L27.6972 21.8898C27.6049 21.9242 27.5188 21.9728 27.4424 22.0335L27.23 22.2253C27.1556 22.2823 27.0776 22.3349 26.9965 22.3827C26.9112 22.4318 26.8121 22.4534 26.7133 22.4444H26.6355C26.5683 22.4965 26.4946 22.5402 26.416 22.5745L26.1825 22.6772C26.1067 22.7124 26.0354 22.7561 25.9701 22.8073C25.8993 22.8552 25.8411 22.9185 25.8002 22.9921V23.2797C25.7931 23.3205 25.7931 23.3621 25.8002 23.4029C25.7896 23.4387 25.7896 23.4767 25.8002 23.5125C25.8243 23.5105 25.8486 23.513 25.8717 23.5201C25.8948 23.5271 25.9162 23.5385 25.9347 23.5536C25.9711 23.5769 26.0044 23.6045 26.0338 23.6357L26.14 23.7316C26.1893 23.7627 26.2447 23.7836 26.3028 23.7932L26.4019 23.7521L26.5222 23.67L26.6425 23.5947C26.6636 23.5789 26.6877 23.5673 26.7133 23.5604H26.954L27.0177 23.4988C27.0384 23.4727 27.065 23.4516 27.0955 23.4372C27.1327 23.4279 27.1717 23.4279 27.2088 23.4372H27.2867C27.2907 23.4805 27.2907 23.524 27.2867 23.5673C27.2904 23.6106 27.2904 23.6541 27.2867 23.6974C27.2936 23.784 27.2936 23.8709 27.2867 23.9575C27.2789 24.051 27.2789 24.1448 27.2867 24.2383C27.2664 24.303 27.2664 24.3721 27.2867 24.4368C27.2548 24.4729 27.2307 24.5148 27.2159 24.5601C27.2111 24.6033 27.2111 24.6469 27.2159 24.6902C27.198 24.783 27.198 24.8781 27.2159 24.9709C27.2332 25.066 27.2332 25.1633 27.2159 25.2585C27.2199 25.3223 27.2199 25.3863 27.2159 25.4502C27.2093 25.5139 27.2093 25.5782 27.2159 25.6419C27.1947 25.7574 27.1947 25.8756 27.2159 25.9911C27.2336 26.1046 27.2336 26.22 27.2159 26.3334C27.2287 26.3944 27.2287 26.4573 27.2159 26.5183C27.3077 26.6754 27.37 26.8469 27.3999 27.025C27.4424 27.2236 27.4849 27.4016 27.5273 27.5659C27.6036 27.6191 27.6705 27.6839 27.7255 27.7576C27.7852 27.8294 27.8491 27.898 27.9166 27.963C27.9788 28.0313 28.0502 28.0912 28.129 28.141C28.2102 28.1897 28.3026 28.2179 28.3979 28.2232C28.4637 28.2322 28.5304 28.2322 28.5961 28.2232C28.6084 28.111 28.642 28.0019 28.6952 27.9014C28.7503 27.8046 28.7818 27.6968 28.7872 27.5864C28.7945 27.5618 28.7945 27.5357 28.7872 27.5111C28.7835 27.5 28.7835 27.488 28.7872 27.4769C28.7896 27.461 28.7896 27.4449 28.7872 27.429C28.7872 27.429 28.7873 27.429 28.7519 27.429H28.6811C28.6 27.3007 28.5313 27.1655 28.4758 27.025C28.3779 26.7326 28.3068 26.4325 28.2635 26.128C28.2422 25.9774 28.2068 25.8268 28.1785 25.6898C28.2286 25.5178 28.2595 25.341 28.2705 25.1626V24.2794C28.279 24.0928 28.3148 23.9084 28.3767 23.7316C28.3786 23.7065 28.3786 23.6814 28.3767 23.6563C28.3798 23.629 28.3798 23.6014 28.3767 23.5741C28.384 23.5426 28.384 23.5098 28.3767 23.4783C28.37 23.4443 28.37 23.4095 28.3767 23.3756C28.3729 23.3575 28.3729 23.3389 28.3767 23.3208L28.8651 23.0948C29.0317 23.0142 29.217 22.9764 29.4031 22.9853H29.5446C29.6625 22.9178 29.792 22.8714 29.9268 22.8483C30.0645 22.8201 30.204 22.8018 30.3445 22.7936H30.755C30.8947 22.7863 31.0328 22.761 31.1655 22.7182C31.2951 22.7284 31.4253 22.7284 31.5548 22.7182C31.8138 22.699 32.0742 22.7198 32.3264 22.7799C32.4573 22.7993 32.5799 22.8539 32.6803 22.9373C32.6307 23.1666 32.5238 23.3805 32.3688 23.5604C32.2168 23.7454 32.0323 23.903 31.8238 24.026C31.8097 24.0681 31.7881 24.1075 31.7601 24.1424C31.7306 24.1756 31.6974 24.2054 31.661 24.2314L31.5548 24.3067C31.5236 24.3327 31.4993 24.3656 31.4841 24.4026C31.3703 24.463 31.2615 24.5317 31.1585 24.608L30.8612 24.8408L30.5639 25.0668C30.4683 25.1424 30.3638 25.2067 30.2525 25.2585C30.1534 25.3817 30.0543 25.4913 29.9481 25.6077C29.8419 25.7241 29.7216 25.8199 29.6012 25.9158C29.4809 26.0116 29.5588 26.1828 29.5305 26.3061L29.4668 26.7032C29.4989 26.7166 29.5272 26.7373 29.5494 26.7635C29.5715 26.7897 29.5869 26.8207 29.5942 26.8538C29.6117 26.9229 29.6429 26.988 29.6862 27.0455C29.7525 27.1409 29.8426 27.2186 29.9481 27.2715C30.186 27.3976 30.4446 27.4833 30.7125 27.5248C30.8263 27.5504 30.9426 27.5641 31.0594 27.5659C31.2125 27.5763 31.3663 27.5763 31.5195 27.5659C31.6466 27.4783 31.7589 27.372 31.8521 27.2509C31.8666 27.2725 31.8866 27.2901 31.9102 27.3021C31.9337 27.3141 31.96 27.3201 31.9866 27.3194C32.0475 27.318 32.1079 27.3297 32.1636 27.3536C32.2227 27.3137 32.2869 27.2815 32.3547 27.2578L32.5529 27.2235H32.7582C32.8283 27.2099 32.8954 27.1844 32.9563 27.1482C33.0097 27.1616 33.0658 27.1616 33.1191 27.1482C33.1756 27.1416 33.2326 27.1416 33.289 27.1482C33.3095 27.1402 33.3323 27.1402 33.3527 27.1482H33.4094C33.5914 27.0722 33.7812 27.0148 33.9756 26.9771C34.188 26.936 34.4003 26.9017 34.6127 26.8812C34.825 26.8607 35.0444 26.8264 35.2568 26.8059C35.4633 26.7948 35.6689 26.7719 35.8726 26.7374C35.9219 26.7308 35.9719 26.7308 36.0212 26.7374C36.0776 26.744 36.1347 26.744 36.1911 26.7374C36.3646 26.7188 36.5354 26.682 36.7007 26.6279C36.7791 26.7736 36.869 26.9132 36.9697 27.0455L37.2812 27.1893C37.3879 27.227 37.4813 27.2936 37.5501 27.381L37.8899 27.4427H38.5057C38.5966 27.4209 38.6846 27.3887 38.7676 27.3468C38.7904 27.364 38.8166 27.3765 38.8446 27.3836C38.8726 27.3907 38.9018 27.3921 38.9304 27.3879H39.0436C39.1607 27.3421 39.2815 27.3054 39.4046 27.2783C39.5261 27.2529 39.649 27.2346 39.7727 27.2235C39.9268 27.0862 40.1039 26.975 40.2965 26.8949C40.4876 26.8127 40.6858 26.7443 40.884 26.6758L41.2025 26.4088C41.3179 26.3268 41.4441 26.2601 41.5777 26.2102C41.7192 26.0253 41.8679 25.8405 42.0165 25.6693C42.1652 25.4856 42.2867 25.2828 42.3775 25.0668C42.3666 24.9918 42.3666 24.9157 42.3775 24.8408C42.3879 24.777 42.4069 24.7149 42.4341 24.6559L42.512 24.4711C42.5474 24.4094 42.5757 24.341 42.6111 24.2657C42.6113 24.0313 42.6569 23.7991 42.7456 23.581C42.757 23.5349 42.7762 23.491 42.8022 23.4509C42.8271 23.4078 42.8461 23.3617 42.8588 23.3139V22.7456C42.8555 22.6841 42.8555 22.6223 42.8588 22.5608C42.8651 22.4921 42.8895 22.4261 42.9296 22.369C42.9162 22.2743 42.8825 22.1834 42.8305 22.102C42.7936 21.9985 42.7359 21.9031 42.6606 21.8213ZM41.882 23.1222V23.2249C41.8811 23.3659 41.862 23.5062 41.8254 23.6426C41.79 23.7727 41.7475 23.8959 41.698 24.026C41.6484 24.1561 41.5918 24.2794 41.5423 24.4094C41.4914 24.5368 41.4488 24.6672 41.4149 24.7997C41.3433 24.8703 41.277 24.9458 41.2167 25.0257C41.1524 25.1018 41.0933 25.1818 41.0397 25.2653L40.9618 25.368C40.9426 25.4086 40.9162 25.4456 40.884 25.4776C40.8462 25.5189 40.8035 25.5557 40.7566 25.5871C40.7089 25.6152 40.6639 25.6472 40.6221 25.683C40.3644 25.8631 40.0894 26.019 39.801 26.1486C39.5151 26.2714 39.216 26.3632 38.9092 26.4225C38.7717 26.3822 38.6278 26.366 38.4845 26.3745C38.3465 26.3798 38.2089 26.3564 38.081 26.3061C37.9619 26.2732 37.8605 26.1972 37.7979 26.0938C37.7467 25.9895 37.6773 25.8945 37.5926 25.8131C37.5891 25.7812 37.5891 25.7491 37.5926 25.7172V25.6214C37.5877 25.4309 37.6165 25.241 37.6775 25.0599C37.7416 24.9108 37.8173 24.7666 37.904 24.6286C37.989 24.4985 38.0881 24.3752 38.1801 24.2451C38.2929 24.1036 38.3879 23.9496 38.4632 23.7864C38.5522 23.7205 38.6351 23.6471 38.711 23.5673L38.9658 23.3276L39.2206 23.1085C39.3087 23.0332 39.4062 22.9688 39.5108 22.9168C39.5586 22.8562 39.6221 22.809 39.6948 22.7799C39.7624 22.7421 39.8186 22.6878 39.8576 22.6224H40.0275C40.08 22.559 40.142 22.5036 40.2116 22.4581C40.2865 22.416 40.3646 22.3794 40.4451 22.3485L40.6858 22.2527C40.7621 22.2191 40.8316 22.1727 40.8911 22.1157C40.9186 22.1257 40.9435 22.1412 40.9643 22.1613C40.985 22.1814 41.0011 22.2055 41.0114 22.2321L41.0751 22.3827L41.16 22.4444C41.1946 22.4339 41.2317 22.4339 41.2662 22.4444L41.3653 22.4923C41.3822 22.5025 41.3962 22.5166 41.4061 22.5333C41.416 22.55 41.4214 22.5689 41.4219 22.5882C41.4663 22.5797 41.512 22.5797 41.5564 22.5882C41.6254 22.5893 41.6932 22.6057 41.7546 22.6361C41.8127 22.6682 41.8744 22.6934 41.9386 22.7114C41.9421 22.7387 41.9421 22.7663 41.9386 22.7936C41.9377 22.8749 41.9104 22.9539 41.8608 23.0195C41.8714 23.053 41.8785 23.0874 41.882 23.1222ZM54.0637 25.3338C54.0681 25.3043 54.0681 25.2743 54.0637 25.2448H54C53.9341 25.2377 53.8677 25.2377 53.8018 25.2448H53.6107C53.5536 25.2451 53.4975 25.2309 53.4479 25.2037C53.0948 25.3845 52.7308 25.5445 52.3578 25.683L51.2607 26.1143C51.2284 26.0984 51.2032 26.0716 51.1899 26.039C51.1842 26.0233 51.1737 26.0097 51.1598 25.9999C51.1459 25.9902 51.1292 25.9847 51.1121 25.9842C51.0763 26.0442 51.018 26.0884 50.9493 26.1075C50.8787 26.1142 50.8075 26.1142 50.7369 26.1075C50.6575 26.1037 50.579 26.0899 50.5033 26.0664C50.43 26.0535 50.3643 26.0144 50.3193 25.9569C50.2426 25.8095 50.1969 25.649 50.1848 25.4844V24.4368C50.2406 24.3661 50.2793 24.2842 50.2981 24.1972C50.3134 24.1204 50.3228 24.0426 50.3264 23.9644C50.3329 23.8618 50.3329 23.7589 50.3264 23.6563V23.3756C50.3807 23.3206 50.4175 23.2516 50.4326 23.177C50.4395 23.1018 50.4395 23.0262 50.4326 22.951V22.5128C50.4292 22.4581 50.4292 22.4032 50.4326 22.3485C50.4425 22.2943 50.4591 22.2414 50.4821 22.191C50.3897 22.0222 50.3411 21.8343 50.3405 21.6433V21.52C50.2765 21.4889 50.2067 21.4703 50.1353 21.4652C50.099 21.4572 50.0659 21.4394 50.0396 21.414C50.0133 21.3886 49.995 21.3565 49.9866 21.3215C49.9306 21.3323 49.8728 21.3323 49.8167 21.3215C49.7769 21.328 49.7362 21.328 49.6964 21.3215L49.5761 21.2872V21.3831C49.4069 21.4529 49.2513 21.5501 49.116 21.6707C48.9989 21.8063 48.9406 21.9805 48.9532 22.1568C48.9986 22.1947 49.0344 22.2422 49.0577 22.2956C49.0811 22.3491 49.0913 22.407 49.0877 22.4649C49.134 22.4733 49.1753 22.4985 49.203 22.5355C49.2306 22.5724 49.2426 22.6183 49.2363 22.6635C49.2368 22.7599 49.2098 22.8547 49.1585 22.9373C49.1916 23.0322 49.2083 23.1317 49.208 23.2318V23.6357C49.1236 23.8563 49.0689 24.0864 49.0452 24.3204C49.0319 24.5498 49.0059 24.7784 48.9674 25.0051V25.2311C48.9636 25.3018 48.9636 25.3726 48.9674 25.4433V25.7994L49.0098 26.0116C49.0064 26.0572 49.0064 26.103 49.0098 26.1486C49.0363 26.2223 49.0745 26.2916 49.1231 26.354C49.1788 26.41 49.2243 26.4749 49.2576 26.5457C49.3117 26.6734 49.391 26.7897 49.4911 26.888C49.5994 26.9754 49.7155 27.0533 49.838 27.1208C49.9124 27.1037 49.99 27.1037 50.0645 27.1208C50.1349 27.1312 50.2064 27.1312 50.2768 27.1208H50.3405V27.0798H50.7511C50.98 27.0817 51.2044 27.0173 51.3952 26.8949H51.4377C51.4632 26.8882 51.49 26.8882 51.5155 26.8949C51.5428 26.9056 51.5732 26.9056 51.6005 26.8949C51.7034 26.8411 51.791 26.7635 51.8553 26.6689C51.9705 26.631 52.0818 26.5828 52.188 26.5252L52.5136 26.3471C52.6191 26.287 52.7278 26.2322 52.8392 26.1828C52.9543 26.1286 53.0754 26.0872 53.2001 26.0596L53.2568 25.9637L53.3134 25.9089C53.3387 25.9011 53.3659 25.9011 53.3913 25.9089H53.5187C53.5187 25.8405 53.5824 25.7788 53.6107 25.7241C53.6314 25.6961 53.6592 25.6739 53.6915 25.6595C53.7237 25.6451 53.7593 25.639 53.7947 25.6419C53.7878 25.6103 53.7878 25.5777 53.7947 25.546C53.794 25.5195 53.8009 25.4933 53.8147 25.4704C53.8284 25.4474 53.8485 25.4286 53.8726 25.4159C53.9092 25.4209 53.9465 25.4158 53.9803 25.4012C54.014 25.3867 54.0429 25.3634 54.0637 25.3338ZM48.7692 25.2379C48.7057 25.2312 48.6416 25.2312 48.578 25.2379C48.5122 25.2447 48.4457 25.2447 48.3799 25.2379C48.3228 25.2383 48.2667 25.2241 48.2171 25.1968C47.867 25.3789 47.5053 25.539 47.1341 25.6761C46.766 25.8131 46.3979 25.9569 46.0299 26.1075C45.9994 26.0913 45.9765 26.0643 45.9662 26.0322C45.9597 26.017 45.949 26.0038 45.9352 25.9942C45.9215 25.9845 45.9053 25.9787 45.8883 25.9774C45.8479 26.0361 45.788 26.0796 45.7184 26.1006C45.6478 26.1073 45.5767 26.1073 45.5061 26.1006C45.4267 26.0968 45.3482 26.083 45.2725 26.0596C45.2083 26.0642 45.1441 26.0499 45.0885 26.0185C45.0118 25.8712 44.966 25.7106 44.954 25.546V24.4985C45.0121 24.4283 45.0532 24.3464 45.0743 24.2588C45.0977 24.1573 45.1143 24.0543 45.1239 23.9507V23.3619C45.1782 23.3069 45.215 23.238 45.23 23.1633C45.2404 23.0883 45.2404 23.0123 45.23 22.9373V22.4991C45.2268 22.4444 45.2268 22.3895 45.23 22.3348C45.2368 22.2799 45.2535 22.2266 45.2796 22.1773C45.1819 22.0103 45.1307 21.8215 45.1309 21.6296V21.5063C45.0673 21.4743 44.9973 21.4556 44.9257 21.4516C44.8904 21.4431 44.8583 21.4251 44.8332 21.3996C44.8082 21.3741 44.7911 21.3423 44.7841 21.3078C44.7257 21.3187 44.6656 21.3187 44.6072 21.3078C44.5697 21.3143 44.5313 21.3143 44.4939 21.3078L44.3665 21.2735C44.3735 21.2886 44.3772 21.3049 44.3772 21.3215C44.3772 21.338 44.3735 21.3543 44.3665 21.3694C44.1994 21.4392 44.0461 21.5365 43.9135 21.657C43.7964 21.7926 43.7381 21.9668 43.7507 22.1431C43.7945 22.1822 43.8292 22.2299 43.8524 22.2831C43.8756 22.3362 43.8868 22.3935 43.8852 22.4512C43.9302 22.4611 43.9698 22.487 43.996 22.5238C44.0222 22.5606 44.0332 22.6055 44.0267 22.6498C44.0304 22.7466 44.0033 22.8422 43.9489 22.9237C43.9853 23.0177 44.0022 23.1177 43.9984 23.2181V23.4303C43.9918 23.4941 43.9918 23.5583 43.9984 23.622C43.9074 23.8406 43.8524 24.0717 43.8356 24.3067C43.8356 24.5395 43.7931 24.7792 43.7578 24.9914L43.7153 25.2174V25.4296C43.7127 25.4753 43.7127 25.521 43.7153 25.5666L43.7578 25.7857C43.7538 25.8564 43.7538 25.9272 43.7578 25.9979V26.1349C43.7869 26.2089 43.8274 26.2781 43.8781 26.3403C43.9316 26.3981 43.9769 26.4625 44.0126 26.532C44.0667 26.6597 44.146 26.776 44.2462 26.8744C44.3532 26.9633 44.4694 27.0413 44.593 27.1072C44.6651 27.09 44.7403 27.09 44.8124 27.1072C44.8828 27.1175 44.9544 27.1175 45.0248 27.1072H45.0955V27.0661C45.1011 27.0636 45.1071 27.0623 45.1132 27.0623C45.1194 27.0623 45.1254 27.0636 45.1309 27.0661H45.499C45.7302 27.0682 45.9568 27.0038 46.1502 26.8812C46.1755 26.8733 46.2027 26.8733 46.2281 26.8812C46.2554 26.8912 46.2856 26.8912 46.313 26.8812H46.3484C46.4488 26.8265 46.5338 26.7489 46.5961 26.6553C46.7136 26.6173 46.8273 26.5692 46.9359 26.5115L47.2544 26.3334C47.3624 26.2733 47.4734 26.2184 47.5871 26.1691C47.6997 26.1149 47.8185 26.0736 47.941 26.0459C47.9634 26.016 47.9824 25.9838 47.9976 25.95L48.0613 25.8952C48.0842 25.8874 48.1092 25.8874 48.1321 25.8952H48.2595C48.2949 25.8268 48.3232 25.7651 48.3586 25.7104C48.3782 25.6814 48.4059 25.6583 48.4384 25.6437C48.471 25.6292 48.5071 25.6238 48.5427 25.6282C48.5193 25.6009 48.5045 25.5676 48.5002 25.5323C48.4995 25.5058 48.5064 25.4796 48.5201 25.4567C48.5339 25.4337 48.5539 25.4149 48.578 25.4023C48.5996 25.4155 48.6238 25.4242 48.649 25.4279C48.6742 25.4316 48.6999 25.4302 48.7246 25.4237C48.7492 25.4173 48.7722 25.406 48.792 25.3905C48.8119 25.375 48.8282 25.3557 48.8399 25.3338C48.8418 25.3041 48.8418 25.2744 48.8399 25.2448L48.7692 25.2379Z" fill="#EAE8E4"/>
</g>
<defs>
<clipPath id="clip0_7_287">
<rect width="72" height="100" fill="white"/>
</clipPath>
</defs>
</svg>
